<?xml version="1.0" encoding="utf-8"?>
<!-- Generator: Adobe Illustrator 16.0.0, SVG Export Plug-In . SVG Version: 6.00 Build 0)  -->
<!DOCTYPE svg PUBLIC "-//W3C//DTD SVG 1.1//EN" "http://www.w3.org/Graphics/SVG/1.1/DTD/svg11.dtd">
<svg version="1.1" id="Layer_1" xmlns="http://www.w3.org/2000/svg" xmlns:xlink="http://www.w3.org/1999/xlink" x="0px" y="0px"
	 width="500px" height="500px" viewBox="0 0 500 500" enable-background="new 0 0 500 500" xml:space="preserve">
<g>
	<path fill="none" stroke="#FFFFFF" stroke-width="10" stroke-linejoin="round" stroke-miterlimit="10" d="M412.054,199.458
		c17.069-13.242,29.512-23.826,38.655-31.945c27.582-24.487,13.652-41.977-23.01-14.799c-0.761-5.621-1.948-11.562-3.239-17.699
		c9.184-19.706,10.49-51.616-8.41-69.167c-2.082-1.928-3.631-1.646-5.334-0.74c-5.688,3.025-11.102,9.073-15.241,15.603
		c-18.995-13.937-43.08-21.974-66.993-22.164l-0.153-0.242c-5.633-0.038-11.246,0.351-16.771,1.197
		c-17.066,2.628-33.254,9.733-46.675,21.769c-8.447-7.884-15.765-1.128-14.502,16.614c-1.106,1.62-2.179,3.288-3.212,5.013
		c-2.081,3.484-3.675,6.533-4.95,9.58c-27.159-40.995-52.107-29.292-3.646,56.77c-38.789-40.382-55.595-10.351-4.325,37.353
		c-3.277,3.064-6.472,6.193-9.556,9.339c-4.188,4.274-7.692,7.838-11.548,12.647c4.474-2.329,9.563-4.582,14.061-6.127
		c0.217,1.551,0.724,3.231,1.504,4.989c-2.668,2.001-5.206,4.005-7.604,6.009c-5.806,0.444-10.858,1.95-15.279,4.259
		c-21.439-28.474-49.48-38.889-76.188-38.503l-0.119,0.159l0.002,0.017c-1.791,0.029-3.583,0.098-5.366,0.225
		c-23.825,1.635-46.189,11.518-61.778,24.683c-6.952,5.871-12.735,11.596-18.402,19.21c7.497-6.056,16.006-10.798,23.971-14.41
		c7.818-3.545,15.871-6.514,24.293-8.705c-48.312,31.264-65.39,64.709-70.833,96.46c-5.745,33.532,1.178,65.069-2.785,90.277
		l-1.654,10.633l4.819-9.61c2.619-5.21,4.645-10.389,6.387-15.939c-0.496,10.331-2.249,20.701-5.754,30.934
		c-3.924,11.45-7.234,19.454-12.921,29.756c9.366-9.971,17.487-20.486,22.823-30.368l-0.954,3.962l-2.005,8.375l5.014-7.001
		c15.243-21.3,27.076-47.686,32.481-74.131c0.11,0.22,0.223,0.438,0.351,0.644c0.255,0.41,0.565,0.767,0.903,1.091
		c1.262,11.256,2.217,23.128,2.437,33.176l0.253,11.306l3.047-10.887c3.105-11.099,5.881-22.21,8.388-33.317
		c0.558-0.149,1.131-0.306,1.729-0.473c13.109-3.66,26.133-8.839,38.208-14.562c-0.49,0.578-0.946,1.21-1.349,1.919
		c-2.62,4.625-2.96,11.685,0.078,23.874c1.275,5.093,2.181,9.143,3.077,12.287c0.905,3.146,1.752,5.454,3.3,7.021
		c1.547,1.567,3.846,1.996,6.28,1.412c2.444-0.575,5.297-1.948,9.143-4.013c31.915-17.165,60.681-45.455,72.555-60.082
		c2.031,0.264,4.147,0.206,6.225-0.039c8.782-1.036,15.517-4.42,21.806-7.97c8,2.738,17.593,4.765,28.423,4.684
		c18.992-0.142,34.05-3.469,46.256-9.076c5.388-0.18,11.578-1.368,18.431-2.888c-3.557,4.564-7.812,6.861-11.699,10.399
		c-4.633,4.205-7.652,9.27-9.22,14.789c-2.172,7.654-1.607,16.164,0.886,24.838c2.59,8.979,6.212,15.726,11.557,18.403
		c2.678,1.334,5.793,1.469,8.899,0.243c3.097-1.228,6.231-3.7,9.503-7.516c4.319-5.048,7.877-10.135,10.755-15.463
		c0.835,3.289,2.09,6.586,3.7,9.851c3.709,7.537,7.983,12.97,13.212,14.508c2.619,0.77,5.453,0.399,8.033-1.197
		c2.58-1.585,4.965-4.294,7.263-8.198c12.22-20.798,13.368-40.241,5.804-70.863c-2.288-9.269-7.906-14.029-14.321-14.633
		c-0.392-0.195-0.779-0.195-1.17-0.195l-0.04,0.12h0.002c-4.598-0.095-9.385,1.687-13.702,4.735
		c-0.592-2.608-1.505-4.868-2.686-6.772c29.889,5.224,53.793-11.645,29.873-22.801c80.065-4.098,88.341-42.129,30.233-33.133
		C538.075,175.604,487.279,149.549,412.054,199.458z M169.938,271.336l0.001,0.008c-0.4-0.01-0.799,0.029-1.179,0.098
		c-3.097,0.525-5.472,2.619-9.104,4.46c-19.341,9.82-38.747,17.995-58.774,22.926c8.524-17.909,21.573-29.667,35.358-36.56
		c18.193-9.097,37.717-9.518,49.387-4.416c-0.868,1.36-1.707,2.738-2.514,4.123c-2.212,3.797-3.914,8.778-5.743,13.699
		c-1.332-1.477-2.544-2.542-3.773-3.269c-1.276-0.778-2.434-1.168-3.709-1.168L169.938,271.336z M176.726,309.999
		c-11.728,8.43-23.844,15.775-36.678,21.519c14.787-8.206,26.977-16.483,34.385-22.376
		C175.177,309.466,175.943,309.749,176.726,309.999z M290.305,166.3c1.027,1.242,1.99,2.372,2.937,3.444
		c-2.485,0.556-5.004,1.302-7.542,2.201c0.053-3.962,0.112-7.844,0.111-11.717C287.179,162.287,288.665,164.315,290.305,166.3z
		 M366.824,316.199c1.041-0.221,2.096-0.451,3.166-0.691c-0.988,2.222-2.189,4.228-3.588,6.078
		C366.579,319.832,366.719,318.036,366.824,316.199z M251.736,108.201c0.036-0.036,0.074-0.07,0.11-0.106
		c1.24,6.312,2.789,13.68,4.773,22.239c-0.309,2.693-0.465,5.37-0.481,8.032c-3.662-8.319-7.526-15.655-11.393-21.938
		C246.876,113.471,249.207,110.745,251.736,108.201z"/>
	<polygon fill="none" stroke="#FFFFFF" stroke-width="10" stroke-linejoin="round" stroke-miterlimit="10" points="328.323,58.295 
		328.328,58.303 328.344,58.303 	"/>
</g>
<title>Layer 1</title>
<path id="svg_173" fill="#672F89" d="M20.672,346.997l-0.175,10.934l5.462-17.059l28.527-65.908l40.884-39.697l38.041-15.452
	l48.616-2.853l-8.267-5.764l-17.234-6.543c0,0-17.585-3.32-18.188-3.447c-0.604-0.126-18.003,0.477-18.003,0.477l-21.45,3.749
	l-15.987,6.951l-15.511,10.107c0,0-7.906,8.374-7.847,8.023c0.059-0.35,15.93-7.02,15.93-7.02l15.267-4.751l9.513-1.724
	l-15.568,10.642l-16.522,12.775c0,0-11.888,11.704-12.18,11.82c-0.292,0.117-13.553,16.046-13.553,16.046l-10.281,18.431
	l-6.661,17.701l-4.158,20.33l-0.681,22.394L20.677,347L20.672,346.997z"/>
<path id="svg_172" fill="#1E98D3" d="M21.256,360.529c7.984-102.174,89.431-164.839,159.165-144.132l11.646,8.023l12.726,14.975
	c0,0-3.748,3.388-4.4,2.911c-0.652-0.476-28.82-12.716-28.82-12.716l-41.371,0.477l-36.016,19.132l-29.118,32.923l-18.071,36.957
	L37.61,360.44l-10.34,29.482l-5.705,14.614l0.594-16.64l-0.837-14.021l-0.096-13.436l0.027,0.068L21.256,360.529z"/>
<path id="svg_171" fill="#62BC4D" d="M202.646,241.059c-39.339-39.151-154.955-28.388-171.985,135.561l-0.769,17.595l-2.445,17.116
	l-4.041,12.541l-5.345,14.613c0,0,8.324-8.733,8.442-9.209c0.118-0.478,11.168-20.857,11.168-20.857l13.67-37.329
	c0,0,9.036-45.168,8.559-45.637c-0.476-0.476,12.239-34.116,12.239-34.116l22.472-28.869l40.845-22.014l57.495,10.417l9.639-9.93
	l0.06,0.128L202.646,241.059z"/>
<path id="svg_170" fill="#FDF6AF" d="M36.835,408.239c0,0,7.448-27.573,8.918-41.722c13.3-128.148,101.619-148.816,149.41-118.383
	l-6.426,9.269l-8.909-2.969l-25.081-3.331l-40.649,10.106l-32.919,32.326l-16.767,62.646l-5.823,20.914l-6.065,15.812
	l-10.106,19.838c0,0-8.442,11.644-8.442,10.808c0.097-0.778,2.921-15.286,2.921-15.286l-0.068-0.03L36.835,408.239z"/>
<path id="svg_169" fill="#F37033" d="M186.683,255.668c-31.137-20.34-72.479-6.388-99.702,25.558
	c-19.921,23.387-23.25,57.367-27.536,92.702l7.254-25.726l25.665-53.969l28.772-28.996l22.102-7.848l19.376-4.633h12.122
	l11.975,2.921h-0.029V255.668z"/>
<path id="svg_168" fill="#EE4144" d="M67.894,347.581c8.286-45.004,33.28-94.407,93.209-94.719l-19.084,4.957l-13.777,7.06
	l-16.727,13.611l-10.417,16.062l-3.447,8.073l-18.325,56.561l-6.221,24.964l-2.182-14.789l-1.938-16.981l-0.749-4.956l-0.292,0.194
	l-0.049-0.039L67.894,347.581z"/>
<path id="svg_167" fill="#1E98D3" d="M129.523,199.387c-1.791,0.029-3.583,0.098-5.366,0.225
	c-23.825,1.635-46.189,11.518-61.778,24.683c-6.952,5.871-12.735,11.596-18.402,19.21c7.497-6.056,16.006-10.798,23.971-14.41
	c7.818-3.545,15.871-6.514,24.293-8.705c-48.312,31.264-65.39,64.709-70.833,96.46c-5.745,33.532,1.178,65.069-2.785,90.277
	l-1.654,10.633l4.819-9.61c2.619-5.21,4.645-10.389,6.387-15.939c-0.496,10.331-2.249,20.701-5.754,30.934
	c-3.924,11.45-7.234,19.454-12.921,29.756c9.366-9.971,17.487-20.486,22.823-30.368l-0.954,3.962l-2.005,8.375l5.014-7.001
	c15.88-22.189,28.08-49.9,33.144-77.446c1.547,12.678,2.774,26.66,3.027,38.226l0.253,11.306l3.047-10.887
	c6.63-23.699,11.811-47.455,15.91-71.105l0.165,4.158l0.584,14.332l2.746-14.079c6.192-31.663,23.884-50.553,42.987-60.104
	c19.104-9.553,39.696-9.553,51.098-3.622l1.558-2.979c-12.833-6.68-34.204-6.378-54.156,3.603
	c-17.525,8.753-33.882,25.148-41.925,51.089c-1.421-6.213-1.12-11.832-0.896-17.624c-4.557,11.313-5.667,26.28-7.77,37.388
	c-3.008,15.852-6.552,31.742-10.709,47.603c-0.798-13.212-2.424-27.729-4.187-39.639l-1.929-13.027l-1.401,13.097
	c-2.95,27.573-13.933,56.412-29.112,80.082c2.219-7.292,3.554-14.264,4.079-21.819c-2.698,7.312-6.67,14.849-9.746,21.031
	c-2.483,4.976-5.277,9.814-8.403,14.458c7.02-17.253,9.698-34.808,8.734-52.188l-0.643-11.566l-2.667,11.275
	c-1.519,6.396-3.116,12.034-5.112,17.39c1.363-23.807-3.184-51.059,1.666-79.401c5.161-30.116,20.846-61.332,65.333-91.563
	c7.449-5.063,13.066-8.131,21.273-11.772c-8.49,0.283-17.331,2.172-24.613,4.334c-7.722,2.298-15.131,5.257-22.325,8.626
	c15.053-12.686,36.872-22.481,59.997-24.079c27.564-1.899,56.901,7.644,79.392,37.603l2.687-2.016
	c-21.518-29.113-49.852-39.726-76.821-39.336l-0.119,0.159L129.523,199.387z"/>
<path id="svg_166" fill="#88C4EB" d="M242.766,313.202l-10.34,5.647l-18.723,3.204l-10.224,11.828l-13.962,13.136l-18.246,15.929
	l-20.506,13.671l-17.71,9.269l-5.044-1.305l-3.924-12.005l-4.041-18.841l1.666-9.628l4.693-5.765l21.508-8.501l31.858-20.329
	l13.076-0.175l15.218-4.46l10.934-5.044l8.852,6.836l14.994,6.514l-0.069,0.01L242.766,313.202z"/>
<path id="svg_165" fill="#1E98D3" d="M233.9,208.539l-14.264,14.8l12.307-2.736l-1.666,8.198l-7.847,6.183l27.399,7.137
	l51.468-7.487l9.152-2.736l13.544-19.376l-11.645-14.38l-78.38,10.516l-0.059-0.099L233.9,208.539z"/>
<path id="svg_164" fill="#62BC4D" d="M231.765,210.872c24.839,2.055,47.506-0.35,67.863-7.712l-2.18-20.845l-1.685-11.431
	l-14.624,4.207l-45.549,32.773l-2.102,1.606l-1.752,1.353L231.765,210.872L231.765,210.872z"/>
<path id="svg_163" fill="#1E98D3" d="M295.439,169.299c-23.272,4.217-49.58,25.042-70.748,46.639
	c-4.188,4.274-7.692,7.838-11.548,12.647c5.014-2.609,10.808-5.13,15.667-6.66c3.739-1.168,7.662-2.113,11.723-2.784
	c-8.15,5.384-15.394,10.778-21.625,16.183l2.21,2.541c7.595-6.592,16.718-13.222,27.35-19.854l5.833-3.631l-6.855,0.536
	c-7.487,0.584-14.682,2.132-21.265,4.343c21.089-21.713,47.758-42.646,69.86-46.648l-0.584-3.409l-0.02,0.109L295.439,169.299z"/>
<path id="svg_162" fill="#88C4EB" d="M364.855,289.937l9.25-5.132l9.074,0.429l6.134,4.197l4.45,9.327l3.368,16.641l0.837,13.281
	l-0.506,12.607l-3.699,14.626l-5.122,9.58l-5.384,8.655l-6.719,2.941l-6.138-3.035l-7.487-10.087l-5.715-14.877l4.79-12.609
	l2.357-11.345l4.79-5.208l2.103-6.057l-6.133,0.848l-0.293-24.536l0.04-0.257L364.855,289.937z"/>
<path id="svg_161" fill="#88C4EB" d="M359.211,278.836l14.206,1.091l15.549-1.684l8.909-4.45l2.6-4.791l-2.939-5.628l-8.063-6.979
	l26.221-2.775l23.115-5.462l14.878-7.224l5.539-7.653l-4.625-5.209l-9.24-2.017l-11.344-0.506l-15.044,0.341l21.255-10.759
	l28.499-15.968l12.435-9.25l6.805-9.24l-0.836-3.788c0,0-5.21-2.347-5.716-2.521c-0.507-0.175-9.833,0.925-9.833,0.925
	l-19.493,6.056l-25.053,11.09l-23.114,12.521l12.19-11.002l21.429-17.993l17.653-16.046l6.641-9.755l0.837-7.818l-4.031-1.003
	l-10.594,1.343l-22.441,12.774l-23.699,33.28l-12.269,16.979l-12.269,21.684l-8.159,17.565l-6.718,14.292l-8.402,15.209l5.062,4.479
	l0.089-0.139L359.211,278.836z"/>
<path id="svg_160" fill="#77B0E0" d="M331.367,266.085c39.092,32.56,93.978,7.069,61.681-7.994
	c80.065-4.098,88.341-42.129,30.233-33.133c114.794-49.354,63.998-75.409-11.228-25.5c17.069-13.242,29.512-23.826,38.655-31.945
	c32.188-28.577,7.846-47.631-43.191,2.726c-23.973,23.65-30.71,47.544-74.203,80.823c33.183-15.948,50.019-48.975,76.453-77.289
	c32.257-34.555,78.058-45.577,31.605-3.32c-8.705,7.907-22.824,17.497-36.396,31.147c-4.664,4.703,1.52-0.331-2.775,5.424
	c3.204-2.453-4.343,5.423-1.109,3.183c71.447-49.228,146.375-45.265,6.163,19.21c94.006-9.795,33.017,26.971-20.632,24.449
	c-4.548-0.215,1.665,1.441-2.677,0.613c3.066,1.013-4.889-0.116-2.425,0.896c47.904,19.571-17.623,33.884-49.948,10.711h-0.217
	H331.367z"/>
<path id="svg_159" fill="#77B0E0" d="M354.932,276.305c21.937,0.128,14.41-18.227,4.732-21.322
	c47.562,4.303,73.141-47.115,14.439-17.828c50.103-50.057,27.456-56.278,9.396-31.936l1.381-4.284
	c11.345-24.176,48.508-17.847,1.179,28.08c40.719-20.213,31.849,29.035-17.983,28.733c11.411,10.721,0.187,22.306-8.431,19.892
	l-5.063-0.78l0.39-0.485l-0.059-0.079L354.932,276.305z"/>
<path id="svg_158" fill="#77B0E0" d="M203.723,289.354c-0.371,0.077-0.721,0.185-1.052,0.332c-2.706,1.107-4.439,3.494-7.36,5.909
	c-19.747,16.318-40.105,30.271-62.821,39.093c-4.382,1.704-9.045,3.33-11.665,7.944c-2.62,4.625-2.96,11.685,0.078,23.874
	c1.275,5.093,2.181,9.143,3.077,12.287c0.905,3.146,1.752,5.454,3.3,7.021c1.547,1.567,3.846,1.996,6.28,1.412
	c2.444-0.575,5.297-1.948,9.143-4.013c32.295-17.369,61.379-46.142,72.985-60.608l-2.57-1.831
	c-11.275,14.05-40.184,42.625-71.905,59.675c-3.768,2.025-6.523,3.29-8.374,3.729c-1.859,0.438-2.521,0.265-3.32-0.555
	c-0.799-0.818-1.666-2.697-2.522-5.687c-0.867-2.998-1.772-7.06-3.057-12.189c-2.951-11.85-2.376-18.062-0.39-21.567
	c1.986-3.504,5.638-4.848,10.077-6.571c23.154-8.997,43.796-23.174,63.677-39.599c3.165-2.619,5.072-4.83,6.552-5.433
	c0.74-0.312,1.363-0.37,2.444-0.029c1.07,0.35,2.746,1.334,4.713,2.882l1.763-2.599c-2.132-1.676-3.866-2.727-5.512-3.264
	c-1.363-0.39-2.629-0.485-3.699-0.292l0.168,0.08L203.723,289.354z"/>
<path id="svg_157" fill="#9EDBF9" d="M307.902,232.489l-23.894,5.939l-54.788-3.204l-14.147,0.711l-15.929,7.604l-8.082,9.036
	l-9.152,14.021l-4.654,11.742l-5.881-5.376l-5.802,1.178l-12.941,6.884l-30.261,13.203l-25.715,7.137l-20.592,4.294l-5.881,4.615
	l-2.356,7.06l-1.343,14.459l0.506,15.384l2.182,7.477l6.222,1.014l19.667-5.298l27.233-11.091l28.149-16.229l23.368-15.54
	l9.454,2.219l12.443-0.544l15.5-5.084l7.234-4.332l9.075,6.309l20.505,9.329l18.159,2.599l17.643-0.077l16.143-2.94l17.226-5.638
	l12.354-7.304l13.622-12.188l9.999-13.029l8.656-16.055l8.568-18.149l11.849-25.306l8.49-12.015l16.221-22.608l6.553-16.815
	l2.863-20.67l5.637-8.491l4.869-14.624l2.434-15.13l-2.688-18.49l-5.969-13.359l-7.39-8.656l-9.756,7.313l-9.581,12.268
	l-5.122,11.685l-15.724,2.433l-18.071,6.222l-15.374,13.953l-6.134,8.49l3.106-16.144l-6.476,3.028l-15.462,14.372l-9.509,13.443
	l-5.55,16.562l-4.118,12.015l1.938,11.85l-4.295,1.762l-3.524,4.041l1.255,5.793l6.39,6.31l7.146,2.774l6.807-1.343l4.041-3.866
	l2.94-8.997l8.149,11.938l-4.372,12.015l-4.702,6.805l-1.685,3.028l-2.016,3.866l-5.744,4.284l0.048,0.128L307.902,232.489z"/>
<path id="svg_156" fill="#FFFFFF" d="M295.34,170.367l0.711,6.728l1.608,6.679l6.933-2.941l3.29-3.428l0.779-0.994l0.798-2.142
	l1.957-9.833l0.497-10.428l-0.74-8.529l-2.229-6.981l-5.493,9.026l-3.514,11.06l-1.481,13.252l-3.018-1.558l-0.089,0.089
	L295.34,170.367z"/>
<path fill="#A8005B" d="M303.436,150.677c-0.312,0-0.62,0.035-0.925,0.079l-2.498,7.837l-1.558,13.242l-3.114-1.461l0.778,6.717
	l1.559,6.719l6.913-2.922l3.31-3.505l0.779-0.973l0.778-2.142l1.947-9.834l0.396-7.042c-1.986-4.102-5.001-6.721-8.361-6.721
	L303.436,150.677z"/>
<path id="svg_152" fill="#D9559F" d="M296.12,174.36l3.739-0.458l0.711,3.31c0,0-3.886,0.701-3.837,0.594
	c0.098-0.097-0.584-3.408-0.584-3.408L296.12,174.36L296.12,174.36z"/>
<path id="svg_151" fill="#F7B9D4" d="M300.312,178.837l-3.175,1.178l-0.418-3.087l3.358-0.253l0.194,2.24l0.028-0.079
	L300.312,178.837z"/>
<path d="M311.569,161.471c-1.558-3.057-3.841-4.973-6.305-4.918c-2.163,0.062-4.095,1.604-5.489,4.048l-1.322,11.229l-0.905-0.425
	c0.226,4.562,1.701,8.516,3.823,10.839l3.218-1.359l3.31-3.505l0.779-0.973l0.778-2.142l1.947-9.834l0.168-2.945L311.569,161.471z"
	/>
<path id="svg_147" fill="#77B0E0" d="M321.532,212.335l-10.301,15.598c-1.918,2.911-4.372,6.923-7.273,10.077
	c4.343-1.422,8.044-5.141,10.341-8.617l10.038-15.209l-2.726-1.85L321.532,212.335L321.532,212.335z"/>
<path id="svg_146" fill="#A8005B" d="M313.062,202.985c6.602,7.097,11.975,15.832,14.498,24.545c0,0,2.813-5.297,2.901-5.512
	c0.087-0.205,0.331-8.567,0.331-8.567l-3.311-8.237l-4.499-9.075l-4.965-5.588l-1.724,7.098l-3.203,5.355l-0.04-0.02H313.062z"/>
<path id="svg_145" fill="#FFFFFF" d="M374.047,137.877c12.765,6.406,16.387,24.984,8.101,41.488
	c-8.285,16.503-25.344,24.681-38.108,18.275c-12.765-6.407-16.396-24.984-8.101-41.488c8.178-16.552,25.314-24.731,38.07-18.305
	L374.047,137.877L374.047,137.877z"/>
<linearGradient id="SVGID_1_" gradientUnits="userSpaceOnUse" x1="284.2705" y1="312.4551" x2="297.8809" y2="280.5691" gradientTransform="matrix(1 0 0 -1 54 465)">
	<stop  offset="0" style="stop-color:#460025"/>
	<stop  offset="1" style="stop-color:#C6006F"/>
</linearGradient>
<path fill="url(#SVGID_1_)" d="M364.213,196.936c3.217-5.224,4.518-12.396,3.078-19.949l0.021-0.048
	c-2.628-13.729-13.339-23.562-24.049-21.908c-4.084,0.643-7.557,2.891-10.138,6.193c-5.239,15.036-1.141,30.547,10.298,36.288
	c6.404,3.212,13.887,2.758,20.796-0.583L364.213,196.936z"/>
<path fill="#F7B9D4" d="M353.784,187.081l-0.097,2.825l-0.03,0.039l8.218,7.983c0.793-0.305,1.585-0.639,2.361-1.029
	c0.757-1.236,1.406-2.578,1.938-4.011l-12.386-5.812L353.784,187.081z"/>
<path fill="#D9559F" d="M367.563,187.397l-13.216-1.742l-0.021,0.02l-0.485,2.922l12.156,4.768c0.721-1.849,1.255-3.855,1.562-5.97
	L367.563,187.397z"/>
<path d="M355.9,180.982l-0.038-0.048c-0.975-10.32-7.4-18.11-14.411-17.331c-5.111,0.467-9.11,5.254-10.567,11.759
	c0.387,9.684,4.761,18.072,12.516,21.966c1.811,0.909,3.71,1.515,5.655,1.854c4.686-3.034,7.582-10.171,6.851-18.207L355.9,180.982z
	"/>
<path id="svg_130" d="M331.466,180.597c-2.016-50.007,55.343-58.07,54.477-18.5c16.591-2.375,17.848-5.111,1.831-3.222
	c-1.85-42.549-65.041-25.219-56.375,21.712l0.079,0.01L331.466,180.597z"/>
<path id="svg_129" d="M384.92,149.244c21.771-7.449,16.319-2.931,0.993,2.619l-0.973-2.629L384.92,149.244L384.92,149.244z"/>
<path id="svg_128" d="M379.365,140.675c14.846-13.64,11.538-7.403,1.865,1.901"/>
<path id="svg_127" fill="#FFFFFF" d="M358.925,182.248c-3.379,1.343-7.916-2.074-10.137-7.644
	c-2.209-5.569-1.265-11.168,2.113-12.511c3.39-1.343,7.927,2.074,10.136,7.644c2.241,5.646,1.266,11.197-2.142,12.561
	L358.925,182.248L358.925,182.248z"/>
<path id="svg_126" fill="#FFFFFF" d="M350.157,186.537c-1.032,0.819-2.794,0.312-3.953-1.138c-1.149-1.451-1.237-3.282-0.214-4.099
	c1.032-0.818,2.804-0.312,3.953,1.139c1.07,1.461,1.168,3.3,0.194,4.089L350.157,186.537L350.157,186.537z"/>
<path id="svg_125" fill="#77B0E0" d="M411.015,175.724c0,0-24.487,29.365-33.026,46.94c-10.827,22.277-19.055,45.692-33.699,63.443
	c-14.644,17.75-35.559,30.066-72.604,30.338c-31.353,0.235-51.926-17.797-51.926-17.797l-2.21,2.531c0,0,21.508,18.87,54.165,18.627
	c37.787-0.282,60.007-13.164,75.166-31.558c15.17-18.392,23.426-42.071,34.138-64.114c8.061-16.6,32.588-46.258,32.588-46.258
	l-2.629-2.142l0.03,0.01L411.015,175.724z"/>
<path id="svg_124" fill="#77B0E0" d="M379.562,282.929c-5.218-0.107-10.682,2.199-15.423,6.035
	c-0.761,0.623,0.515,1.022-0.204,1.714l0.311,2.678c5.024-4.831,11.158-7.488,16.203-7.01c5.043,0.476,9.317,3.747,11.382,12.101
	c7.457,30.233,6.367,48.255-5.443,68.351c-2.112,3.603-4.226,5.871-6.124,7.04c-1.908,1.177-3.555,1.362-5.315,0.847
	c-3.535-1.043-7.635-5.618-11.159-12.774c-3.378-6.875-5.014-13.72-4.381-20.058c0.486-4.879,2.366-9.62,5.773-13.68
	c4.712-5.618,8.285-11.559,7.195-20.233c-1.413,6.951-4.217,12.092-8.315,16.436c-4.829,5.112-7.391,10.992-8.003,17.146
	c-0.712,7.138,1.13,14.586,4.722,21.867c3.709,7.537,7.983,12.97,13.212,14.508c2.619,0.77,5.453,0.399,8.033-1.197
	c2.58-1.585,4.965-4.294,7.263-8.198c12.22-20.798,13.368-40.241,5.804-70.863c-2.288-9.269-7.906-14.029-14.321-14.633
	c-0.392-0.195-0.779-0.195-1.17-0.195l-0.04,0.12H379.562z"/>
<path id="svg_123" fill="#9EDBF9" d="M328.838,279.716l-28.235,7.398l-0.088,10.253l3.952,8.91l10.925,2.94l23.115-3.358
	l-3.369,5.121l-10.418,8.91l-6.046,8.324l-3.116,10.76l1.267,14.537l4.449,12.687l5.385,7.74l5.879,2.434l9.076-4.79l13.192-16.133
	l6.135-14.879l3.622-17.146l0.925-16.729l-0.507-14.282l-2.521-9.922l-6.134-6.387l-7.984-1.432l-8.577,1.937l-10.087,5.289
	l-0.779-1.753l-0.049-0.435L328.838,279.716z"/>
<path id="svg_122" fill="#62BC4D" d="M402.543,196.273c0.166-0.088,12.648-6.768,12.648-6.768l7.234-7.642l3.485-9.376l1.129-11.811
	l-4.41-25.334l-7.021,11.557l-0.964,11.051l-3.281,13.358l-5.462,14.127l-3.407,10.709l0.049,0.148L402.543,196.273z"/>
<path id="svg_121" fill="#77B0E0" d="M296.703,169.299l-2.521,0.098c0.185,5.102,1.081,10.272,2.882,15.53l2.386-0.818
	c-1.656-5.064-2.532-10.029-2.727-14.896l-0.021,0.089V169.299z"/>
<path id="svg_120" fill="#77B0E0" d="M310.136,230.057c0,0-11.526,3.661-24.817,6.271c-13.3,2.599-29.171,4.216-38.762,0.983
	c-18.86-6.349-32.403-4.606-42.528,1.401c-9.221,5.482-15.657,14.234-20.914,23.262c-4.05,6.952-6.387,17.877-10.934,25.13
	c6.523-4.849,9.844-16.844,13.973-23.661c5.257-8.685,11.245-16.874,19.6-21.828c9.25-5.501,21.498-7.254,39.734-1.12
	c10.914,3.68,26.971,1.771,40.475-0.876c13.516-2.638,23.66-6.125,23.66-6.125l0.487-3.408l0.03-0.01L310.136,230.057z"/>
<path id="svg_119" fill="#9EDBF9" d="M273.338,256.536l19.416-16.133l-3.029-9.669l-3.446-14.828l-2.054-20.097l-0.633-18.198
	l0.125-22.726l-0.544-23.076l-12.571-37.817l-8.568-12.57l-5.257-1.305l-4.031,7.614l1.14,22.14l4.488,17.983l5.676,26.396
	l-9.921-15.715l-9.747-18.918l-7.642-11.762l-13.116-13.7l-7.059-1.937l-3.281,3.699l0.253,10.759l5.968,19.667l11.937,26.979
	l11.09,20.418l-12.774-10.506l-15.121-9.659l-7.906-0.847l-2.688,5.638l3.106,11.596l13.446,19.999l25.724,24.965l-11.43,0.341
	l-5.716,3.105l0.925,8.403l4.868,8.159l8.744,7.896l14.625,8.743l14.994,4.966l0.01-0.021L273.338,256.536z"/>
<path id="svg_118" fill="#77B0E0" d="M286.671,257.703c-50.824,2.161-78.983-51.399-44.174-43.786
	c-61.156-51.828-44.662-87.083-3.924-44.672c-61.312-108.884-5.122-98.767,24.39-13.456c-5.539-20.884-9.007-36.843-11.343-48.847
	c-8.246-42.248,22.666-42.627,32.676,28.372c4.703,33.339-4.44,56.424,9.95,109.26c-16.698-32.812-10.049-69.275-13.885-107.827
	c-4.673-47.048-34.389-83.598-23.094-21.829c2.103,11.577,7.516,27.769,10.019,46.853c0.857,6.562-0.994-1.188-1.081,5.988
	c-1.062-3.894,0.166,6.942-1.052,3.204c-26.92-82.479-88.894-124.798-16.552,11.538c-68.789-64.826-42.606,1.402,1.567,31.946
	c3.739,2.59-2.2,0.136,1.753,2.113c-3.048-1.052,3.963,2.882,1.382,2.182c-49.753-13.242-6.328,37.874,33.397,39.043l-0.05-0.079
	L286.671,257.703z"/>
<path id="svg_117" fill="#EE4144" d="M258.344,146.615l8.501-17l14.915-26.863l27.809-21.09l49.744-16.522l-18.655-4.634
	l-20.983-0.302c0,0-15.15,2.317-15.568,2.56c-0.419,0.234-18.072,5.823-18.072,5.823l-12.714,8.315l-12.124,9.747l-8.266,10.524
	l-7.01,12.658l12.483-10.223l15.753-10.165l-6.426,10.758l-6.232,14.439l-2.979,12.901l-0.828,11.052l0.877,8.276l-0.247-0.247
	L258.344,146.615z"/>
<path id="svg_116" fill="#F37033" d="M258.927,143.788c13.114-58.596,60.521-76.899,97.647-79.461l15.394,4.761l14.8,7.487
	l4.333,3.914l-27.633,5.181l-35.654,18.12l-17.536,32.218l-6.718,11.645l-4.041,13.135l-0.828,12.239l-9.035-10.097l-7.295-11.891
	l-4.984-13.787l-1.13-13.855l-0.067-8.14l-7.128,11.061l-4.633,11.051l-3.809,15.745l-2.434-6.709l0.876-2.726l-0.118,0.118
	L258.927,143.788z"/>
<path id="svg_115" fill="#FDF6AF" d="M305.758,142.424c5.18-51.244,47.68-64.563,84.025-63.054l5.97,3.612l-5.218,10.506
	l-2.016,4.206l-14.537,2.181l-11.85,3.613l-12.024,6.816l-8.909,7.984l-7.565,10.418l2.95-16.309l-7.312,4.537l-9.163,7.653
	l-8.237,8.568l-5.938,9.249l-0.168,0.01L305.758,142.424z"/>
<path id="svg_114" fill="#1E98D3" d="M328.344,58.303c-5.639-0.039-11.257,0.35-16.786,1.197
	c-25.539,3.933-49.12,17.876-64.389,43.396c-5.287,8.851-7.467,14.897-9.103,25.227c3.496-7.965,8.131-14.352,13.67-19.921
	c5.316-5.335,11.354-10.048,17.955-14.118c-12.111,19.921-15.667,39.219-12.434,57.679c1.208,6.913,2.893,12.415,5.89,19.133
	c-0.448-6.183-0.467-12.901,0.04-18.519c1.11-12.395,5.375-22.647,11.382-31.867c-0.32,16.552,4.401,32.072,15.735,45.791
	c3.808,4.606,6.768,7.732,11.021,11.733c-0.925-5.58-0.905-11.45-0.194-16.368c1.305-9.026,5.561-17.759,11.178-25.471
	c6.544-8.968,14.928-16.455,22.472-21.333c-1.139,2.551-1.655,5.043-2.287,7.624c-1.236,5.053-1.646,9.163-1.431,14.438
	c2.522-5.014,5.599-9.581,8.558-13.484c14.227-18.802,31.945-22.794,49.335-24.352l-0.302-3.35
	c-18.382,1.646-38.177,6.446-53.347,27.935c1.646-7.497,3.846-11.752,8.313-17.409c-4.604,2.142-9.55,4.888-13.201,7.438
	c-7.195,5.063-14.731,12.161-20.826,20.515c-7.438,10.203-12.716,22.365-12.21,34.954c-13.962-14.283-19.737-30.349-19.494-48.04
	c0.06-4.158,0.312-7.624,0.896-11.801c-2.492,2.873-5.022,6.271-6.913,9.163c-5.782,8.86-10.077,18.8-11.654,30.496
	c-2.425-16.211,0.751-32.988,10.817-50.621c3.155-5.52,5.882-9.697,10.107-14.77c-5.618,2.862-11.021,6.134-15.54,9.084
	c-5.929,3.866-11.383,8.296-16.279,13.222c14.458-25.665,37.632-39.208,62.742-43.075c28.559-4.4,59.598,3.866,82.635,21.459
	l2.035-2.667c-19.181-14.508-43.813-22.881-68.253-23.076l-0.158-0.25L328.344,58.303z"/>
<path id="svg_113" fill="#1E98D3" d="M424.349,134.833l-3.185,1.392c3.204,15.297,5.2,28.285,2.668,38.099
	c-1.724,6.699-7.565,14.079-19.717,19.093c9.329-17.544,13.146-31.585,13.544-48.01l-2.591,0.798
	c-0.028,0.488-0.905,0.809-0.934,1.285c-1.274,22.57-9.698,37.281-17.535,52.315c16.581-4.604,26.932-12.045,30.485-24.604
	c3.213-10.809,0.584-24.926-2.63-40.213l-0.107-0.178L424.349,134.833z"/>
<path id="svg_112" fill="#77B0E0" d="M409.156,151.577c19.601-6.036,33.952-60.601,6.894-85.73c-2.082-1.928-3.631-1.646-5.334-0.74
	c-13.183,7.01-24.896,30.242-22.668,38.109c1.705-7.176,12.746-27.282,23.338-33.582c1.149-0.681,1.899-0.614,2.746,0.321
	c24.926,27.652,8.569,71.759-4.965,81.69l-0.02-0.07L409.156,151.577z"/>
<path id="svg_111" fill="#77B0E0" d="M413.931,91.115c1.547,14.302-1.383,27.068-6.923,38.937
	c8.082-6.426,13.241-26.094,6.912-38.946l0.011,0.012V91.115z"/>
<path id="svg_110" fill="#F47735" d="M328.54,209.222c-4.303-0.584-4.06,10.525,0.838,13.826l1.305-7.059l-2.143-6.718V209.222
	L328.54,209.222z"/>
<path id="svg_109" fill="#77B0E0" d="M292.325,184.293c-1.314,0.837-2.396,1.967-3.116,3.36c-0.993,1.897-1.158,4.284-0.263,6.708
	c0.896,2.415,2.774,4.907,5.803,7.506c4.157,3.544,10.36,5.2,15.687,3.535c2.666-0.837,5.09-2.59,6.649-5.316
	c0.993-1.732,1.636-3.846,1.86-6.319c2.764,3.524,5.89,8.666,7.916,14.049c2.044,5.453,2.97,11.012,1.646,15.472
	c-0.857,2.911-2.026,4.897-4.323,7.001c3.759,0.156,7.856-0.263,11.129-0.789c6.222-1.003,12.366-2.784,17.993-5.004
	c10.438-4.128,17.778-8.374,26.522-17.107c-9.639,6.066-19.113,10.536-27.72,13.943c-6.631,2.62-14.04,4.605-21.305,5.355
	c2.863-5.92,1.724-13.34-0.798-20.048c-1.898-5.063-4.616-9.766-7.254-13.466c-1.977-2.774-3.944-4.741-6.622-6.66
	c0.721,3.808-0.019,8.442-1.955,11.907c-1.121,1.997-2.776,3.154-4.742,3.768c-3.943,1.236-9.27-0.107-12.501-2.873
	c-2.738-2.347-4.207-4.45-4.83-6.124c-0.624-1.674-0.478-2.912,0.087-3.982c0.399-0.779,1.109-1.479,2.025-2.063
	c4.849-3.106,8.812,0.263,14.518-10.71c-8.07,7.984-11.781,5.062-16.26,7.887l-0.138-0.03H292.325z"/>
<polygon fill="none" points="295.34,170.367 296.12,177.088 297.673,183.81 304.592,180.883 307.902,177.385 308.674,176.406 
	309.454,174.261 311.401,164.437 311.984,154.019 311.203,145.448 308.97,138.529 303.515,147.583 300.015,158.584 298.453,171.83 
	"/>
<path id="svg_106" fill="#FFFFFF" d="M310.434,167.451c-1.706,0.614-4.041-1.578-5.23-4.887c-1.187-3.311-0.768-6.494,0.935-7.098
	c1.705-0.614,4.042,1.578,5.229,4.888c1.169,3.311,0.682,6.523-0.973,7.108h0.04V167.451z"/>
<path id="svg_105" d="M308.684,176.406c3.086-11.781,2.618-27.632-0.02-35.626l1.8-2.453c3.407,12.17,3.116,26.97-1.752,38.07
	h-0.029L308.684,176.406z"/>
<path id="svg_104" fill="#77B0E0" d="M301.28,191.795c3.261,0.545,5.315-0.634,5.949-3.846c1.752,4.284-1.364,7.01-5.939,3.797
	L301.28,191.795L301.28,191.795z"/>
<path id="svg_103" fill="#FFFFFF" d="M308.001,172.611c-0.535,0.399-1.49,0.019-2.133-0.837c-0.642-0.857-0.729-1.879-0.193-2.279
	c0.535-0.399,1.49-0.029,2.132,0.837c0.584,0.779,0.681,1.851,0.194,2.24v0.029V172.611z"/>
<path id="svg_102" fill="#77B0E0" d="M196.804,306.877c-11.216,2.6-22.628,2.425-31.225-5.345
	c6.417,10.446,20.086,11.197,32.042,8.675c12.55-2.649,24.283-7.75,29.405-19.416c-8.471,9.152-18.987,13.438-30.184,16.066
	L196.804,306.877L196.804,306.877z"/>
<path id="svg_101" fill="#77B0E0" d="M169.939,271.344c-0.4-0.01-0.799,0.029-1.179,0.098c-3.097,0.525-5.472,2.619-9.104,4.46
	c-24.506,12.443-49.111,22.267-74.961,26.162c-4.996,0.749-10.253,1.354-14.088,5.579c-3.836,4.217-5.843,11.539-5.531,25.015
	c0.137,5.637,0.126,10.076,0.331,13.592s0.556,6.115,1.801,8.131c1.246,2.005,3.563,2.987,6.25,2.949
	c2.688-0.028,6.008-0.799,10.506-2.054c37.914-10.584,75.127-33.874,90.676-46.298l-2.26-2.521
	c-15.101,12.063-52.09,35.178-89.313,45.576c-4.43,1.236-7.604,1.908-9.649,1.937c-2.044,0.029-2.706-0.32-3.35-1.362
	c-0.642-1.042-1.11-3.213-1.305-6.553s-0.195-7.799-0.331-13.476c-0.302-13.105,1.762-19.483,4.664-22.677
	c2.902-3.192,7.04-3.749,12.093-4.508c26.366-3.982,51.312-13.962,75.994-26.494c3.934-1.996,6.455-3.855,8.14-4.146
	c0.847-0.147,1.519-0.068,2.561,0.544c1.051,0.624,2.571,2.037,4.264,4.12l2.453-2.309c-1.84-2.25-3.408-3.758-5.004-4.703
	c-1.276-0.778-2.434-1.168-3.709-1.168l0.05,0.099L169.939,271.344z"/>
<path id="svg_100" fill="#1E98D3" d="M209.565,259.266c-0.671,2.298-1.763,4.313-3.106,6.153c-0.194-0.672-0.438-1.149-0.69-1.597
	c-6.368,9.581-13.671,18.724-21.275,27.516l0.506-0.485l1.032-1.003l4.381-4.491l4.567-4.585l10.281-11.401l0.379,2.122l8.14-11.274
	l-1.452-4.664l-3.251,2.541l0.292,1.071l0.208,0.089L209.565,259.266z"/>
<path id="svg_99" fill="#FDF6AF" d="M211.798,260.629c-1.539,3.058-3.689,5.832-5.754,8.646c-0.03-0.721-0.126-1.342-0.361-1.752
	c-6.718,8.178-13.933,16.153-21.148,23.825l4.528-4.158l3.33-3.095l10.963-10.779l0.448,2.113l1.733-1.686l5.295-5.918l5.892-9.017
	l-3.71,0.486l-1.168,1.364l-0.04-0.04L211.798,260.629z"/>
<path id="svg_98" fill="#FFFFFF" d="M211.512,257.417l-0.214,1.733l0.272,1.257l0.809,0.448l1.353-0.216l1.714-1.042l1.665-1.685
	l0.78-1.421l0.584-1.986l1.042-0.106l2.074-0.342l2.784-1.235l2.483-1.929l1.684-2.083l0.497-1.704l-0.01-0.935l-0.584-1.062
	l-1.315-0.37l-1.216,0.029l-0.068-1.158l-0.526-1.139l-1.354-0.418l-2.181,0.33l-2.093,0.857l-2.493,2.015l-1.636,1.743
	l-1.266,2.464l-1.285,0.292l-2.891,0.71l-1.967,0.936l-1.967,1.381l-1.586,1.666l-1.305,2.717l0.088,1.957l0.448,1.245l0.857,0.732
	l0.993,0.291l1.432-0.302l1.451-0.838l2.102-1.87l0.584-0.876l0.257-0.079L211.512,257.417z"/>
<path id="svg_97" fill="#EE4144" d="M223.581,253.324c-6.748,10.087-14.303,18.89-22.189,27.156
	c0.896-2.132,1.685-4.235,1.441-6.046c-5.89,6.26-12.2,11.392-18.353,16.932c6.728-6.406,13.485-12.755,19.833-20.067
	c0.194,0.623,0.097,1.713-0.303,3.281c4.255-5.004,8.481-10.021,12.025-15.54l1.519-1.996l0.681-1.548l0.253-1.101l1.325,0.146
	l1.831-0.446l1.752-0.682l0.178-0.089H223.581z"/>
<path id="svg_96" fill="#1E98D3" d="M229.037,245.437c-0.225-0.331-0.565-0.594-1.013-0.749c-0.487-0.165-1.13-0.186-1.859-0.098
	c0.029-0.662-0.087-1.295-0.409-1.811c-0.418-0.662-1.236-0.965-2.19-0.955c-0.945,0.02-2.074,0.321-3.242,0.896
	c-2.288,1.139-4.732,3.35-6.172,6.515c-8.471,1.363-11.509,6.24-11.178,9.492c0.087,0.818,0.379,1.539,0.875,2.054
	c0.487,0.517,1.179,0.828,1.977,0.828c1.441,0.01,3.222-0.934,5.189-3.212c-0.136,1.032,0.049,1.782,0.497,2.249
	c0.594,0.603,1.539,0.603,2.502,0.205c1.889-0.762,4.051-3.06,4.761-6.213c4.275,0.215,7.917-2.483,9.6-5.131
	c0.857-1.353,1.247-2.697,0.848-3.709c-0.292,0-0.39-0.098-0.39-0.195l0.188-0.168L229.037,245.437z M228.74,246.021
	c0.292,0.74,0.01,1.967-0.799,3.233c-1.616,2.54-5.209,5.199-9.348,4.887l-0.233-0.01l-0.048,0.224
	c-0.614,3.087-2.765,5.346-4.488,6.037c-0.847,0.35-1.539,0.311-1.929-0.089c-0.39-0.397-0.556-1.275-0.156-2.783l0.351-1.276
	l-0.811,1.038c-2.171,2.813-4.099,3.836-5.434,3.836c-0.672-0.01-1.208-0.253-1.606-0.672s-0.652-1.022-0.73-1.744
	c-0.292-2.892,2.463-7.642,10.867-8.948l0.146-0.02l0.058-0.136c1.373-3.115,3.778-5.277,5.998-6.377
	c1.11-0.546,2.17-0.828,3.007-0.837c0.847-0.01,1.441,0.243,1.744,0.71c0.312,0.496,0.389,1.227,0.263,1.997
	c-0.126,0.779-0.467,1.598-0.935,2.24c-0.468,0.642-1.051,1.14-1.665,1.295c-0.623,0.166-1.266,0.039-1.977-0.614l-0.302-0.282
	l-0.126,0.409c-1.246,4.08-3.3,5.889-4.897,6.387c-0.808,0.253-1.499,0.186-1.927-0.06c-0.837-0.642-0.604-1.274-0.078-1.907
	c-1.354,0.623-1.197,1.751-0.185,2.355c0.594,0.342,1.432,0.409,2.347,0.117c1.772-0.556,3.836-2.453,5.131-6.397
	c0.711,0.525,1.461,0.681,2.142,0.506c0.779-0.204,1.451-0.778,1.967-1.499c0.516-0.721,0.886-1.597,1.032-2.463v-0.03
	c0.74-0.098,1.333-0.078,1.743,0.068c0,0.292,0.292,0.584,0.487,0.974l0.415-0.178L228.74,246.021z"/>
<path id="svg_95" fill="#77B0E0" d="M261.754,251.575c-17.506-13.202-0.392-23.231,9.182-19.824
	c-40.417-25.442-29.551-81.826-0.662-22.929c-9.464-70.191,12.326-61.399,11.907-31.089l1.5-4.235
	c5.646-26.104-27.73-43.62-17.983,21.596c-20.087-40.768-42.928,3.759-3.135,33.756c-15.579,1.597-13.681,17.624-5.355,20.923
	l4.488,2.454l0.194-0.584l-0.147-0.059L261.754,251.575z"/>
<path id="svg_94" fill="#77B0E0" d="M348.507,273.093c-3.71,0.011-7.673,0.808-11.373,2.678c-5.451,2.747-9.045,5.745-12.103,11.032
	c4.09-3.225,8.987-5.902,13.33-7.887c5.13-2.337,10.379-3.058,14.586-1.89c5.52,1.539,9.629,6.066,10.262,15.686
	c2.259,34.672-2.503,54.32-19.443,74.106c-3.039,3.554-5.813,5.646-8.18,6.571c-2.366,0.935-4.273,0.808-6.153-0.126
	c-3.769-1.88-7.371-7.76-9.834-16.329c-2.376-8.237-2.833-16.115-0.876-22.978c1.363-4.831,3.893-9.192,7.877-12.921
	c6.027-5.637,13.066-9.318,13.836-20.408c-3.943,10.088-10.215,12.59-15.735,17.614c-4.633,4.205-7.652,9.27-9.22,14.789
	c-2.172,7.654-1.607,16.164,0.886,24.838c2.59,8.979,6.212,15.726,11.557,18.403c2.678,1.334,5.793,1.469,8.899,0.243
	c3.097-1.228,6.231-3.7,9.503-7.516c17.458-20.399,22.521-41.44,20.231-76.512c-0.69-10.572-5.86-16.805-12.704-18.703
	c-1.655-0.486-3.408-0.682-5.258-0.682l-0.089-0.009L348.507,273.093z"/>
<path id="svg_93" fill="#77B0E0" d="M306.242,276.305c-7.04,6.99-8.598,13.417-7.381,20.77c0.515,3.146,1.52,5.703,3.019,7.749
	c2.143,2.941,5.287,4.654,8.938,5.404c7.312,1.5,16.845-0.397,28.013-2.931l0.486-3.594c-11.099,2.522-21.674,4.49-27.817,3.233
	c-3.067-0.634-5.297-1.891-6.912-4.099c-1.053-1.441-1.861-3.359-2.328-5.863c-1.265-6.718,0.585-14.701,3.992-20.737v0.069
	L306.242,276.305z"/>
<path id="svg_92" fill="#77B0E0" d="M328.344,282.929c-0.342-2.972-1.16-6.068-2.289-8.919c2.152,2.142,3.681,4.479,4.752,6.99
	l-2.374,1.782l-0.195,0.194l0.109-0.05L328.344,282.929z"/>
<path id="svg_91" fill="#77B0E0" d="M365.35,316.515c2.112-0.438,4.293-0.916,6.532-1.433l0.497-3.593
	c-2.396,0.546-4.762,1.061-7.069,1.529c0,0,0,3.312,0.099,3.506l-0.06-0.021L365.35,316.515z"/>
<path id="svg_90" fill="#77B0E0" d="M242.271,311.84c-6.417,3.641-12.784,6.94-21.255,7.934c-5.734,0.662-10.428,0.575-15.53-2.727
	c3.603,5.959,9.97,6.757,15.998,6.046c9.083-1.071,15.978-4.654,22.453-8.334l-1.752-2.823l0.069-0.1L242.271,311.84z"/>
<linearGradient id="SVGID_2_" gradientUnits="userSpaceOnUse" x1="188.5605" y1="402.7432" x2="285.7744" y2="402.7432">
	<stop  offset="0" style="stop-color:#FFFFFF"/>
	<stop  offset="1" style="stop-color:#000000"/>
</linearGradient>
<path fill="none" stroke="url(#SVGID_2_)" stroke-width="5" stroke-linejoin="round" stroke-miterlimit="10" d="M237.312,407.523
	c-8.656-17.769,4.536-32.863,20.913-32.238c27.247,1.042,34.643,39.555,10.262,51.25c-16.971,8.141-32.687,2.206-44.314-12.025
	c-10.515-12.869-25.699,2.965-33.111-18.745c17.791,10.18,24.875-9.755,43.735-2.256"/>
</svg>
