<?xml version="1.0" encoding="UTF-8" standalone="no"?>
<!-- Generator: Adobe Illustrator 16.0.0, SVG Export Plug-In . SVG Version: 6.00 Build 0)  -->
<!DOCTYPE svg  PUBLIC '-//W3C//DTD SVG 1.1//EN'  'http://www.w3.org/Graphics/SVG/1.1/DTD/svg11.dtd'>
<svg id="Layer_1" xmlns="http://www.w3.org/2000/svg" xml:space="preserve" height="500px" viewBox="0 0 500 500" width="500px" version="1.1" y="0px" x="0px" xmlns:xlink="http://www.w3.org/1999/xlink" enable-background="new 0 0 500 500">
<title>Layer 1</title>
<path id="svg_173" d="m15.164 350.38l-0.177 11.062 5.526-17.259 28.862-66.68 41.363-40.162 38.486-15.633 49.185-2.886-8.363-5.832-17.436-6.62s-17.791-3.359-18.401-3.487c-0.611-0.128-18.214 0.482-18.214 0.482l-21.701 3.793-16.175 7.033-15.692 10.225s-7.999 8.472-7.939 8.117c0.059-0.354 16.116-7.102 16.116-7.102l15.446-4.807 9.624-1.744-15.751 10.767-16.716 12.924s-12.028 11.841-12.323 11.958c-0.295 0.119-13.712 16.234-13.712 16.234l-10.402 18.647-6.738 17.908-4.207 20.568-0.689 22.657 0.033-0.16z" fill="#672F89"/>
<path id="svg_172" d="m15.755 364.07c8.078-103.37 90.479-166.77 161.03-145.82l11.782 8.117 12.875 15.15s-3.792 3.428-4.452 2.945c-0.66-0.482-29.158-12.865-29.158-12.865l-41.855 0.482-36.438 19.356-29.459 33.31-18.283 37.39-9.496 41.846-10.461 29.828-5.772 14.786 0.601-16.835-0.847-14.186-0.098-13.594 0.028 0.07z" fill="#1E98D3"/>
<path id="svg_171" d="m199.27 243.2c-39.8-39.61-156.77-28.72-174 137.15l-0.778 17.8-2.473 17.317-4.088 12.688-5.408 14.785s8.422-8.836 8.541-9.318 11.299-21.101 11.299-21.101l13.83-37.767s9.142-45.697 8.659-46.171c-0.482-0.482 12.382-34.517 12.382-34.517l22.735-29.207 41.324-22.272 58.168 10.54 9.752-10.047 0.06 0.13z" fill="#62BC4D"/>
<path id="svg_170" d="m31.516 412.34s7.536-27.897 9.023-42.211c13.456-129.65 102.81-150.56 151.16-119.77l-6.501 9.377-9.013-3.004-25.375-3.369-41.126 10.225-33.305 32.705-16.963 63.379-5.891 21.159-6.137 15.997-10.224 20.07s-8.541 11.781-8.541 10.935c0.098-0.788 2.955-15.466 2.955-15.466l-0.068-0.03z" fill="#FDF6AF"/>
<path id="svg_169" d="m183.12 257.98c-31.502-20.578-73.328-6.462-100.87 25.858-20.155 23.661-23.523 58.039-27.858 93.788l7.339-26.026 25.966-54.602 29.109-29.336 22.361-7.939 19.603-4.688h12.264l12.116 2.955h-0.03z" fill="#F37033"/>
<path id="svg_168" d="m62.939 350.97c8.383-45.53 33.67-95.513 94.301-95.827l-19.308 5.014-13.938 7.143-16.923 13.771-10.54 16.25-3.487 8.167-18.539 57.223-6.294 25.257-2.207-14.963-1.96-17.18-0.758-5.014-0.296 0.197-0.05-0.04z" fill="#EE4144"/>
<path id="svg_167" d="m125.29 201.04c-1.812 0.03-3.625 0.099-5.428 0.227-24.104 1.655-46.731 11.653-62.502 24.972-7.034 5.94-12.885 11.732-18.618 19.436 7.585-6.127 16.194-10.925 24.252-14.579 7.91-3.586 16.057-6.59 24.578-8.807-48.879 31.63-66.157 65.467-71.664 97.59-5.812 33.926 1.192 65.832-2.817 91.336l-1.674 10.757 4.876-9.723c2.65-5.271 4.699-10.511 6.462-16.126-0.502 10.452-2.275 20.943-5.822 31.296-3.97 11.584-7.319 19.682-13.072 30.104 9.476-10.087 17.692-20.726 23.09-30.724l-0.965 4.009-2.029 8.472 5.073-7.083c16.066-22.449 28.409-50.484 33.532-78.353 1.566 12.826 2.807 26.972 3.063 38.674l0.256 11.438 3.083-11.014c6.708-23.977 11.949-48.012 16.096-71.939l0.167 4.207 0.591 14.5 2.778-14.244c6.265-32.035 24.164-51.145 43.491-60.809s40.161-9.664 51.696-3.664l1.576-3.015c-12.983-6.757-34.605-6.452-54.79 3.645-17.731 8.856-34.28 25.444-42.417 51.687-1.438-6.285-1.133-11.969-0.906-17.83-4.61 11.447-5.733 26.588-7.861 37.827-3.043 16.037-6.629 32.113-10.835 48.16-0.808-13.368-2.453-28.055-4.236-40.103l-1.951-13.18-1.418 13.249c-2.985 27.897-14.096 57.074-29.454 81.021 2.246-7.378 3.596-14.431 4.127-22.075-2.729 7.397-6.748 15.022-9.86 21.277-2.512 5.034-5.339 9.93-8.501 14.628 7.102-17.455 9.811-35.216 8.836-52.8l-0.65-11.702-2.699 11.407c-1.537 6.472-3.152 12.176-5.172 17.594 1.379-24.086-3.221-51.657 1.685-80.332 5.221-30.469 21.09-62.051 66.098-92.636 7.536-5.123 13.219-8.226 21.523-11.91-8.59 0.286-17.534 2.197-24.902 4.384-7.812 2.325-15.308 5.319-22.587 8.728 15.229-12.835 37.304-22.745 60.7-24.361 27.887-1.921 57.567 7.733 80.322 38.043l2.719-2.039c-21.77-29.454-50.436-40.191-77.722-39.797l-0.12 0.16z" fill="#1E98D3"/>
<path id="svg_166" d="m239.86 316.19l-10.461 5.713-18.943 3.241-10.343 11.968-14.126 13.289-18.46 16.115-20.746 13.831-17.918 9.378-5.103-1.32-3.97-12.146-4.088-19.061 1.685-9.742 4.748-5.832 21.76-8.6 32.231-20.568 13.229-0.177 15.396-4.512 11.062-5.103 8.955 6.916 15.17 6.59-0.07 0.01z" fill="#88C4EB"/>
<path id="svg_165" d="m230.89 210.3l-14.431 14.973 12.451-2.768-1.685 8.294-7.939 6.255 27.72 7.221 52.071-7.575 9.26-2.768 13.702-19.603-11.781-14.549-79.298 10.639-0.06-0.1z" fill="#1E98D3"/>
<path id="svg_164" d="m228.73 212.66c25.129 2.079 48.062-0.354 68.659-7.802l-2.206-21.09-1.705-11.565-14.795 4.256-46.082 33.157-2.127 1.625-1.773 1.369 0.03 0.05z" fill="#62BC4D"/>
<path id="svg_163" d="m293.15 170.6c-23.544 4.266-50.16 25.336-71.576 47.185-4.236 4.325-7.782 7.93-11.683 12.796 5.073-2.64 10.934-5.191 15.85-6.738 3.783-1.182 7.752-2.138 11.86-2.817-8.245 5.447-15.574 10.904-21.878 16.372l2.236 2.571c7.684-6.669 16.914-13.377 27.671-20.086l5.901-3.674-6.936 0.542c-7.575 0.591-14.854 2.157-21.514 4.394 21.336-21.967 48.317-43.146 70.679-47.195l-0.591-3.448-0.02 0.11z" fill="#1E98D3"/>
<path id="svg_162" d="m363.38 292.65l9.358-5.191 9.181 0.434 6.206 4.245 4.502 9.437 3.408 16.836 0.847 13.436-0.512 12.757-3.743 14.796-5.182 9.693-5.447 8.757-6.797 2.975-6.21-3.07-7.575-10.205-5.782-15.052 4.847-12.757 2.384-11.477 4.847-5.27 2.127-6.127-6.205 0.857-0.296-24.824 0.04-0.26z" fill="#88C4EB"/>
<path id="svg_161" d="m357.67 281.42l14.372 1.104 15.731-1.704 9.014-4.502 2.63-4.847-2.975-5.693-8.157-7.062 26.528-2.808 23.386-5.526 15.052-7.309 5.604-7.743-4.679-5.27-9.349-2.04-11.476-0.512-15.22 0.345 21.504-10.885 28.833-16.155 12.58-9.358 6.885-9.348-0.847-3.832s-5.271-2.374-5.782-2.551c-0.513-0.177-9.949 0.936-9.949 0.936l-19.721 6.127-25.347 11.22-23.385 12.668 12.333-11.131 21.681-18.204 17.859-16.234 6.719-9.87 0.847-7.91-4.078-1.015-10.718 1.359-22.705 12.924-23.977 33.67-12.412 17.179-12.412 21.938-8.255 17.771-6.797 14.46-8.501 15.387 5.122 4.532 0.09-0.14z" fill="#88C4EB"/>
<path id="svg_160" d="m329.5 268.52c39.55 32.941 95.078 7.152 62.403-8.088 81.003-4.146 89.376-42.623 30.587-33.521 116.14-49.933 64.748-76.293-11.358-25.799 17.269-13.397 29.857-24.105 39.107-32.32 32.566-28.912 7.939-48.189-43.697 2.758-24.253 23.927-31.069 48.101-75.072 81.771 33.571-16.136 50.604-49.549 77.348-78.195 32.635-34.96 78.973-46.111 31.976-3.359-8.807 7.999-23.091 17.702-36.822 31.512-4.719 4.758 1.537-0.335-2.808 5.487 3.241-2.482-4.394 5.487-1.123 3.221 72.284-49.805 148.09-45.796 6.235 19.435 95.108-9.91 33.404 27.287-20.873 24.735-4.601-0.217 1.685 1.458-2.709 0.62 3.103 1.025-4.945-0.117-2.453 0.906 48.466 19.801-17.829 34.281-50.533 10.836h-0.22z" fill="#77B0E0"/>
<path id="svg_159" d="m353.34 278.86c22.194 0.128 14.579-18.441 4.788-21.573 48.12 4.354 73.998-47.667 14.608-18.037 50.691-50.643 27.779-56.937 9.506-32.31l1.398-4.334c11.477-24.459 49.076-18.056 1.192 28.409 41.195-20.45 32.222 29.375-18.194 29.07 11.545 10.846 0.188 22.567-8.53 20.125l-5.123-0.789 0.395-0.492-0.06-0.08z" fill="#77B0E0"/>
<path id="svg_158" d="m200.36 292.06c-0.375 0.079-0.729 0.188-1.064 0.336-2.738 1.122-4.492 3.535-7.447 5.979-19.978 16.51-40.575 30.626-63.557 39.551-4.433 1.724-9.151 3.369-11.801 8.038-2.65 4.679-2.995 11.821 0.079 24.153 1.29 5.152 2.207 9.25 3.113 12.432 0.916 3.182 1.773 5.517 3.339 7.103s3.891 2.02 6.354 1.429c2.473-0.582 5.359-1.971 9.25-4.059 32.674-17.574 62.098-46.683 73.84-61.32l-2.601-1.852c-11.407 14.214-40.654 43.125-72.747 60.374-3.812 2.049-6.6 3.329-8.472 3.772-1.881 0.443-2.551 0.267-3.359-0.561s-1.685-2.729-2.551-5.754c-0.877-3.033-1.793-7.141-3.093-12.332-2.985-11.988-2.404-18.273-0.394-21.819s5.704-4.905 10.195-6.649c23.425-9.102 44.309-23.445 64.423-40.062 3.202-2.65 5.132-4.887 6.629-5.497 0.749-0.315 1.379-0.374 2.473-0.029 1.083 0.354 2.778 1.35 4.768 2.915l1.783-2.629c-2.157-1.695-3.911-2.759-5.576-3.301-1.379-0.395-2.66-0.492-3.743-0.295l0.17 0.08z" fill="#77B0E0"/>
<path id="svg_157" d="m305.76 234.53l-24.174 6.009-55.43-3.241-14.313 0.719-16.116 7.693-8.176 9.142-9.26 14.185-4.708 11.88-5.95-5.438-5.871 1.191-13.092 6.965-30.616 13.357-26.016 7.221-20.834 4.344-5.95 4.67-2.384 7.141-1.359 14.629 0.512 15.564 2.207 7.564 6.295 1.025 19.898-5.359 27.552-11.22 28.479-16.421 23.642-15.722 9.565 2.245 12.589-0.551 15.682-5.143 7.319-4.383 9.181 6.383 20.745 9.438 18.372 2.629 17.85-0.078 16.332-2.975 17.426-5.704 12.5-7.388 13.781-12.333 10.117-13.181 8.757-16.243 8.669-18.362 11.988-25.602 8.59-12.156 16.411-22.873 6.629-17.012 2.896-20.913 5.703-8.59 4.926-14.795 2.463-15.308-2.719-18.707-6.039-13.515-7.477-8.757-9.87 7.398-9.693 12.412-5.182 11.821-15.908 2.462-18.283 6.295-15.554 14.116-6.206 8.59 3.143-16.333-6.551 3.064-15.644 14.54-9.62 13.6-5.614 16.756-4.167 12.156 1.961 11.988-4.345 1.783-3.565 4.088 1.27 5.861 6.463 6.383 7.23 2.807 6.886-1.359 4.088-3.911 2.975-9.102 8.245 12.077-4.423 12.156-4.758 6.885-1.704 3.063-2.039 3.911-5.812 4.334 0.05 0.13z" fill="#9EDBF9"/>
<path id="svg_156" d="m293.05 171.68l0.72 6.807 1.626 6.757 7.014-2.975 3.329-3.468 0.788-1.005 0.808-2.167 1.979-9.949 0.503-10.55-0.749-8.629-2.256-7.063-5.556 9.132-3.556 11.19-1.498 13.407-3.053-1.576-0.09 0.09z" fill="#fff"/>
<path d="m301.24 151.76c-0.315 0-0.626 0.035-0.936 0.08l-2.526 7.929-1.576 13.397-3.151-1.478 0.788 6.796 1.576 6.797 6.994-2.956 3.349-3.546 0.788-0.985 0.788-2.167 1.97-9.949 0.4-7.125c-2.01-4.15-5.06-6.8-8.46-6.8z" fill="#A8005B"/>
<path id="svg_152" d="m293.84 175.72l3.782-0.463 0.72 3.349s-3.932 0.709-3.882 0.601c0.099-0.098-0.591-3.448-0.591-3.448l-0.03-0.04z" fill="#D9559F"/>
<path id="svg_151" d="m298.08 180.25l-3.212 1.192-0.423-3.123 3.398-0.256 0.196 2.266 0.03-0.08z" fill="#F7B9D4"/>
<path d="m309.47 162.68c-1.576-3.092-3.886-5.031-6.379-4.976-2.189 0.062-4.143 1.622-5.554 4.096l-1.337 11.361-0.916-0.43c0.228 4.616 1.721 8.616 3.868 10.966l3.255-1.375 3.349-3.546 0.788-0.985 0.788-2.167 1.97-9.949 0.17-2.98z"/>
<path id="svg_147" d="m319.55 214.14l-10.422 15.781c-1.94 2.945-4.423 7.004-7.358 10.195 4.393-1.438 8.137-5.201 10.461-8.718l10.156-15.387-2.758-1.872h-0.08z" fill="#77B0E0"/>
<path id="svg_146" d="m310.98 204.68c6.679 7.181 12.116 16.017 14.668 24.833 0 0 2.847-5.359 2.936-5.576 0.088-0.207 0.335-8.668 0.335-8.668l-3.35-8.333-4.551-9.181-5.024-5.654-1.743 7.181-3.241 5.418-0.04-0.02z" fill="#A8005B"/>
<path id="svg_145" d="m372.68 138.81c12.914 6.481 16.578 25.277 8.195 41.974s-25.641 24.971-38.555 18.49c-12.915-6.482-16.589-25.277-8.196-41.974 8.274-16.746 25.611-25.021 38.517-18.52l0.04 0.03z" fill="#fff"/>
<linearGradient id="SVGID_1_" y2="185.91" gradientUnits="userSpaceOnUse" x2="350.25" y1="153.65" x1="336.48">
	<stop stop-color="#460025" offset="0"/>
	<stop stop-color="#C6006F" offset="1"/>
</linearGradient>
<path d="m362.73 198.56c3.254-5.285 4.571-12.541 3.115-20.183l0.02-0.049c-2.659-13.889-13.495-23.838-24.331-22.164-4.132 0.65-7.644 2.925-10.256 6.265-5.3 15.212-1.154 30.905 10.418 36.713 6.48 3.25 14.05 2.79 21.04-0.59z" fill="url(#SVGID_1_)"/>
<path d="m352.18 188.59l-0.099 2.857-0.03 0.04 8.314 8.077c0.802-0.308 1.604-0.646 2.389-1.041 0.766-1.25 1.423-2.608 1.961-4.058l-12.53-5.88z" fill="#F7B9D4"/>
<path d="m366.12 188.91l-13.371-1.762-0.02 0.02-0.492 2.956 12.299 4.823c0.73-1.87 1.27-3.9 1.58-6.04z" fill="#D9559F"/>
<path d="m354.32 182.42l-0.039-0.049c-0.985-10.441-7.486-18.322-14.579-17.534-5.172 0.472-9.218 5.316-10.691 11.897 0.39 9.797 4.816 18.284 12.662 22.224 1.832 0.919 3.753 1.532 5.722 1.875 4.74-3.07 7.67-10.29 6.93-18.42z"/>
<path id="svg_130" d="m329.6 182.03c-2.039-50.593 55.991-58.75 55.114-18.716 16.785-2.403 18.057-5.171 1.852-3.26-1.871-43.047-65.802-25.514-57.035 21.967l0.08 0.01z"/>
<path id="svg_129" d="m383.68 150.31c22.025-7.536 16.51-2.965 1.005 2.65l-0.985-2.66-0.02 0.01z"/>
<path id="svg_128" d="m378.06 141.64c15.02-13.799 11.673-7.49 1.887 1.924"/>
<path id="svg_127" d="m357.38 183.7c-3.418 1.359-8.009-2.098-10.255-7.733-2.235-5.634-1.28-11.299 2.138-12.658 3.429-1.359 8.019 2.098 10.255 7.733 2.266 5.713 1.28 11.328-2.167 12.708l0.03-0.05z" fill="#fff"/>
<path id="svg_126" d="m348.51 188.04c-1.044 0.828-2.827 0.315-3.999-1.152-1.163-1.468-1.252-3.32-0.217-4.147 1.044-0.828 2.837-0.315 3.999 1.152 1.083 1.478 1.182 3.339 0.197 4.137l0.02 0.01z" fill="#fff"/>
<path id="svg_125" d="m410.08 177.1s-24.774 29.709-33.413 47.49c-10.954 22.538-19.278 46.229-34.094 64.188-14.815 17.957-35.975 30.418-73.456 30.693-31.719 0.237-52.534-18.006-52.534-18.006l-2.236 2.561s21.76 19.091 54.799 18.845c38.23-0.286 60.71-13.318 76.047-31.927 15.348-18.607 23.701-42.564 34.537-64.866 8.156-16.795 32.97-46.8 32.97-46.8l-2.659-2.167 0.03 0.01z" fill="#77B0E0"/>
<path id="svg_124" d="m378.26 285.56c-5.28-0.108-10.807 2.226-15.604 6.107-0.769 0.63 0.521 1.034-0.207 1.733l0.315 2.709c5.083-4.886 11.289-7.575 16.392-7.092 5.103 0.482 9.427 3.792 11.516 12.244 7.545 30.586 6.441 48.82-5.507 69.151-2.138 3.645-4.275 5.94-6.196 7.122-1.931 1.191-3.596 1.379-5.378 0.857-3.576-1.055-7.724-5.684-11.289-12.924-3.418-6.955-5.073-13.881-4.433-20.293 0.492-4.936 2.394-9.732 5.841-13.84 4.768-5.684 8.383-11.693 7.28-20.471-1.429 7.034-4.266 12.235-8.413 16.629-4.886 5.172-7.477 11.121-8.097 17.347-0.72 7.221 1.143 14.757 4.777 22.124 3.753 7.625 8.077 13.121 13.367 14.678 2.649 0.778 5.517 0.404 8.127-1.211 2.61-1.605 5.023-4.345 7.349-8.295 12.362-21.041 13.524-40.713 5.871-71.693-2.315-9.377-7.999-14.194-14.49-14.805-0.395-0.197-0.788-0.197-1.183-0.197l-0.04 0.12z" fill="#77B0E0"/>
<path id="svg_123" d="m326.94 282.31l-28.566 7.486-0.089 10.373 3.999 9.014 11.053 2.975 23.386-3.398-3.409 5.182-10.54 9.014-6.117 8.422-3.152 10.885 1.281 14.707 4.501 12.836 5.448 7.831 5.949 2.462 9.181-4.846 13.348-16.322 6.206-15.053 3.665-17.347 0.936-16.923-0.513-14.451-2.551-10.038-6.206-6.462-8.078-1.448-8.678 1.96-10.205 5.35-0.788-1.773-0.05-0.44z" fill="#9EDBF9"/>
<path id="svg_122" d="m401.51 197.89c0.168-0.089 12.796-6.847 12.796-6.847l7.319-7.732 3.526-9.486 1.143-11.949-4.462-25.631-7.103 11.692-0.975 11.181-3.32 13.515-5.526 14.293-3.447 10.835 0.05 0.15z" fill="#62BC4D"/>
<path id="svg_121" d="m294.43 170.6l-2.551 0.099c0.188 5.162 1.094 10.393 2.916 15.712l2.414-0.828c-1.676-5.123-2.562-10.146-2.759-15.071l-0.02 0.09z" fill="#77B0E0"/>
<path id="svg_120" d="m308.02 232.07s-11.663 3.704-25.109 6.344c-13.456 2.63-29.513 4.266-39.216 0.995-19.081-6.423-32.783-4.66-43.027 1.418-9.329 5.546-15.84 14.401-21.159 23.534-4.098 7.033-6.462 18.086-11.062 25.424 6.6-4.905 9.959-17.041 14.136-23.938 5.319-8.786 11.377-17.071 19.83-22.084 9.358-5.566 21.75-7.339 40.2-1.133 11.042 3.723 27.287 1.792 40.949-0.887 13.674-2.669 23.938-6.196 23.938-6.196l0.493-3.448 0.03-0.01z" fill="#77B0E0"/>
<path id="svg_119" d="m270.79 258.86l19.643-16.323-3.064-9.782-3.486-15.002-2.079-20.332-0.64-18.411 0.127-22.992-0.551-23.346-12.718-38.26-8.669-12.717-5.318-1.32-4.079 7.703 1.153 22.4 4.541 18.194 5.742 26.705-10.037-15.899-9.861-19.14-7.732-11.9-13.269-13.86-7.142-1.96-3.32 3.743 0.256 10.885 6.038 19.898 12.077 27.296 11.22 20.657-12.924-10.629-15.298-9.772-7.999-0.857-2.719 5.704 3.142 11.732 13.604 20.233 26.025 25.257-11.564 0.345-5.783 3.142 0.936 8.501 4.925 8.255 8.846 7.989 14.796 8.845 15.17 5.024 0.01-0.02z" fill="#9EDBF9"/>
<path id="svg_118" d="m284.28 260.04c-51.42 2.186-79.909-52.002-44.692-44.299-61.872-52.435-45.185-88.104-3.97-45.195-62.03-110.16-5.182-99.925 24.676-13.614-5.604-21.129-9.112-37.275-11.476-49.42-8.343-42.742 22.932-43.126 33.059 28.705 4.758 33.729-4.492 57.085 10.067 110.54-16.894-33.197-10.166-70.087-14.048-109.09-4.728-47.599-34.792-84.578-23.365-22.085 2.128 11.713 7.605 28.094 10.137 47.402 0.867 6.639-1.006-1.202-1.094 6.058-1.074-3.94 0.168 7.023-1.064 3.241-27.236-83.445-89.936-126.26-16.746 11.673-69.595-65.586-43.106 1.418 1.586 32.32 3.783 2.62-2.226 0.138 1.773 2.138-3.083-1.064 4.01 2.916 1.398 2.207-50.336-13.397-6.402 38.319 33.789 39.501l-0.05-0.08z" fill="#77B0E0"/>
<path id="svg_117" d="m255.62 147.65l8.6-17.199 15.091-27.178 28.134-21.337 50.327-16.716-18.874-4.689-21.229-0.305s-15.328 2.344-15.751 2.59c-0.424 0.237-18.283 5.891-18.283 5.891l-12.864 8.412-12.265 9.861-8.363 10.648-7.092 12.806 12.628-10.343 15.938-10.284-6.501 10.885-6.305 14.608-3.015 13.052-0.837 11.181 0.887 8.373-0.25-0.25z" fill="#EE4144"/>
<path id="svg_116" d="m256.21 144.79c13.269-59.282 61.231-77.801 98.792-80.392l15.574 4.817 14.973 7.575 4.384 3.96-27.956 5.241-36.073 18.332-17.741 32.596-6.797 11.781-4.088 13.289-0.838 12.382-9.141-10.215-7.38-12.03-5.043-13.948-1.143-14.018-0.069-8.235-7.211 11.19-4.688 11.181-3.852 15.929-2.463-6.787 0.887-2.758-0.12 0.12z" fill="#F37033"/>
<path id="svg_115" d="m303.59 143.41c5.24-51.844 48.238-65.319 85.011-63.793l6.039 3.655-5.28 10.629-2.039 4.255-14.707 2.207-11.988 3.655-12.166 6.896-9.013 8.078-7.654 10.54 2.984-16.5-7.397 4.59-9.27 7.743-8.334 8.668-6.008 9.358-0.17 0.01z" fill="#FDF6AF"/>
<path id="svg_114" d="m326.44 58.303c-5.704-0.04-11.388 0.354-16.982 1.211-25.839 3.979-49.697 18.086-65.143 43.904-5.349 8.955-7.555 15.072-9.21 25.523 3.537-8.058 8.226-14.52 13.831-20.155 5.378-5.398 11.486-10.166 18.165-14.283-12.254 20.154-15.85 39.678-12.579 58.355 1.222 6.994 2.926 12.56 5.959 19.357-0.453-6.255-0.473-13.052 0.04-18.736 1.123-12.54 5.438-22.913 11.515-32.241-0.324 16.746 4.453 32.448 15.92 46.328 3.852 4.66 6.846 7.822 11.15 11.87-0.936-5.645-0.916-11.584-0.197-16.559 1.32-9.132 5.625-17.968 11.309-25.77 6.62-9.073 15.102-16.647 22.735-21.583-1.152 2.581-1.675 5.103-2.314 7.713-1.251 5.112-1.665 9.27-1.448 14.608 2.552-5.073 5.664-9.693 8.659-13.643 14.392-19.022 32.319-23.061 49.913-24.637l-0.306-3.389c-18.598 1.665-38.624 6.521-53.972 28.262 1.665-7.585 3.891-11.89 8.412-17.613-4.659 2.167-9.663 4.945-13.357 7.526-7.279 5.122-14.904 12.303-21.07 20.755-7.525 10.323-12.865 22.627-12.353 35.364-14.126-14.451-19.968-30.705-19.722-48.603 0.06-4.207 0.315-7.713 0.906-11.939-2.521 2.906-5.082 6.344-6.994 9.27-5.851 8.964-10.195 19.021-11.791 30.853-2.453-16.401 0.759-33.374 10.944-51.214 3.192-5.585 5.95-9.811 10.226-14.943-5.685 2.896-11.151 6.206-15.723 9.191-5.998 3.911-11.516 8.393-16.47 13.377 14.628-25.966 38.073-39.668 63.478-43.58 28.893-4.452 60.296 3.911 83.603 21.711l2.059-2.699c-19.405-14.678-44.327-23.149-69.053-23.346l-0.16-0.253z" fill="#1E98D3"/>
<path id="svg_113" d="m423.57 135.73l-3.221 1.408c3.241 15.476 5.26 28.617 2.699 38.546-1.744 6.777-7.654 14.244-19.948 19.317 9.438-17.75 13.299-31.955 13.703-48.573l-2.621 0.808c-0.029 0.493-0.916 0.818-0.945 1.3-1.29 22.834-9.812 37.718-17.741 52.928 16.775-4.659 27.247-12.186 30.843-24.893 3.251-10.935 0.591-25.218-2.66-40.684l-0.11-0.18z" fill="#1E98D3"/>
<path id="svg_112" d="m408.2 152.67c19.83-6.107 34.35-61.311 6.975-86.735-2.107-1.95-3.674-1.665-5.397-0.749-13.338 7.093-25.188 30.596-22.933 38.556 1.724-7.26 12.895-27.602 23.611-33.975 1.163-0.689 1.921-0.621 2.778 0.325 25.218 27.976 8.669 72.6-5.023 82.647l-0.02-0.07z" fill="#77B0E0"/>
<path id="svg_111" d="m413.03 91.5c1.566 14.47-1.398 27.385-7.004 39.393 8.177-6.501 13.397-26.4 6.994-39.403l0.01 0.013z" fill="#77B0E0"/>
<path id="svg_110" d="m326.64 210.99c-4.354-0.591-4.108 10.649 0.847 13.988l1.32-7.142-2.167-6.797v-0.05z" fill="#F47735"/>
<path id="svg_109" d="m290 185.77c-1.33 0.847-2.424 1.99-3.152 3.399-1.005 1.92-1.172 4.334-0.266 6.787 0.906 2.443 2.807 4.965 5.87 7.595 4.206 3.585 10.481 5.26 15.87 3.576 2.698-0.847 5.151-2.62 6.728-5.378 1.005-1.753 1.655-3.891 1.882-6.393 2.797 3.566 5.959 8.767 8.008 14.214 2.069 5.517 3.005 11.141 1.665 15.653-0.867 2.945-2.049 4.955-4.374 7.083 3.803 0.158 7.95-0.266 11.26-0.798 6.295-1.015 12.511-2.817 18.204-5.063 10.56-4.177 17.987-8.472 26.833-17.308-9.752 6.137-19.337 10.659-28.045 14.106-6.708 2.65-14.204 4.659-21.553 5.418 2.896-5.989 1.743-13.496-0.808-20.283-1.921-5.123-4.67-9.88-7.339-13.624-2-2.807-3.99-4.797-6.699-6.738 0.729 3.852-0.02 8.541-1.979 12.047-1.133 2.02-2.808 3.191-4.797 3.812-3.99 1.251-9.378-0.108-12.648-2.906-2.769-2.374-4.256-4.502-4.886-6.196-0.631-1.694-0.483-2.946 0.088-4.029 0.404-0.788 1.123-1.497 2.049-2.088 4.906-3.142 8.915 0.266 14.688-10.835-8.166 8.078-11.919 5.122-16.45 7.979l-0.14-0.03z" fill="#77B0E0"/>
<polygon points="293.05 171.68 293.84 178.48 295.41 185.28 302.41 182.32 305.76 178.78 306.54 177.79 307.33 175.62 309.3 165.68 309.89 155.14 309.1 146.47 306.84 139.47 301.32 148.63 297.78 159.76 296.2 173.16" fill="none"/>
<path id="svg_106" d="m308.32 168.73c-1.725 0.621-4.088-1.596-5.29-4.945s-0.778-6.57 0.945-7.181c1.724-0.621 4.088 1.596 5.29 4.945 1.182 3.35 0.689 6.6-0.985 7.191h0.04z" fill="#fff"/>
<path id="svg_105" d="m306.55 177.79c3.122-11.919 2.649-27.956-0.02-36.043l1.822-2.482c3.447 12.313 3.152 27.286-1.773 38.516h-0.03z"/>
<path id="svg_104" d="m299.06 193.36c3.3 0.551 5.378-0.641 6.019-3.891 1.773 4.334-1.38 7.092-6.009 3.842l-0.01 0.05z" fill="#77B0E0"/>
<path id="svg_103" d="m305.86 173.95c-0.542 0.404-1.508 0.02-2.158-0.847-0.649-0.867-0.738-1.901-0.196-2.305s1.507-0.03 2.157 0.847c0.591 0.788 0.689 1.872 0.197 2.266v0.03z" fill="#fff"/>
<path id="svg_102" d="m193.36 309.79c-11.348 2.63-22.893 2.453-31.591-5.407 6.492 10.568 20.322 11.328 32.418 8.776 12.697-2.68 24.567-7.841 29.749-19.643-8.57 9.26-19.209 13.595-30.537 16.254l-0.04 0.02z" fill="#77B0E0"/>
<path id="svg_101" d="m166.18 273.84c-0.404-0.01-0.808 0.03-1.192 0.099-3.133 0.532-5.536 2.65-9.21 4.512-24.794 12.589-49.687 22.528-75.84 26.469-5.054 0.758-10.373 1.369-14.254 5.645-3.881 4.266-5.911 11.673-5.595 25.307 0.138 5.703 0.128 10.195 0.335 13.751 0.207 3.557 0.562 6.187 1.822 8.226 1.261 2.029 3.605 3.023 6.324 2.984 2.719-0.029 6.078-0.808 10.629-2.078 38.358-10.708 76.008-34.271 91.739-46.84l-2.286-2.551c-15.278 12.204-52.701 35.59-90.36 46.11-4.482 1.251-7.693 1.931-9.762 1.96-2.068 0.029-2.738-0.324-3.389-1.379-0.65-1.054-1.123-3.25-1.32-6.629s-0.197-7.891-0.335-13.634c-0.306-13.259 1.783-19.712 4.718-22.942 2.936-3.23 7.122-3.793 12.235-4.561 26.675-4.029 51.913-14.126 76.884-26.804 3.98-2.02 6.531-3.901 8.235-4.196 0.857-0.148 1.537-0.069 2.591 0.551 1.063 0.631 2.601 2.06 4.314 4.168l2.482-2.335c-1.862-2.276-3.448-3.803-5.063-4.759-1.291-0.787-2.462-1.182-3.753-1.182l0.05 0.1z" fill="#77B0E0"/>
<path id="svg_100" d="m206.27 261.62c-0.679 2.325-1.783 4.364-3.142 6.226-0.197-0.68-0.443-1.162-0.699-1.615-6.442 9.693-13.831 18.943-21.524 27.838l0.512-0.492 1.044-1.015 4.433-4.542 4.62-4.639 10.402-11.535 0.384 2.146 8.235-11.406-1.468-4.719-3.29 2.571 0.295 1.083 0.21 0.09z" fill="#1E98D3"/>
<path id="svg_99" d="m208.53 263c-1.557 3.093-3.733 5.9-5.822 8.747-0.03-0.729-0.128-1.359-0.365-1.773-6.797 8.274-14.096 16.343-21.396 24.104l4.581-4.206 3.369-3.132 11.092-10.905 0.453 2.138 1.753-1.705 5.358-5.988 5.96-9.122-3.753 0.493-1.182 1.379-0.04-0.04z" fill="#FDF6AF"/>
<path id="svg_98" d="m208.24 259.75l-0.216 1.754 0.275 1.271 0.818 0.453 1.369-0.217 1.734-1.055 1.684-1.704 0.789-1.438 0.591-2.01 1.054-0.107 2.098-0.346 2.817-1.25 2.512-1.951 1.704-2.107 0.502-1.724-0.01-0.946-0.591-1.074-1.33-0.374-1.231 0.029-0.069-1.172-0.532-1.152-1.369-0.423-2.207 0.334-2.118 0.867-2.522 2.039-1.655 1.763-1.281 2.493-1.3 0.295-2.925 0.719-1.99 0.946-1.99 1.398-1.605 1.685-1.32 2.748 0.089 1.98 0.453 1.261 0.867 0.739 1.005 0.295 1.448-0.305 1.468-0.848 2.127-1.892 0.591-0.886 0.26-0.08z" fill="#fff"/>
<path id="svg_97" d="m220.45 255.61c-6.826 10.205-14.47 19.11-22.449 27.474 0.906-2.157 1.704-4.285 1.458-6.117-5.959 6.334-12.343 11.525-18.568 17.13 6.807-6.481 13.643-12.904 20.066-20.302 0.197 0.63 0.098 1.733-0.306 3.319 4.305-5.062 8.58-10.137 12.166-15.722l1.537-2.019 0.689-1.566 0.256-1.113 1.34 0.147 1.852-0.453 1.773-0.689 0.18-0.09z" fill="#EE4144"/>
<path id="svg_96" d="m225.97 247.63c-0.227-0.335-0.571-0.601-1.024-0.758-0.493-0.167-1.143-0.188-1.881-0.099 0.029-0.67-0.089-1.31-0.414-1.832-0.423-0.67-1.251-0.976-2.216-0.966-0.956 0.02-2.098 0.325-3.28 0.907-2.315 1.152-4.788 3.389-6.245 6.59-8.57 1.379-11.644 6.314-11.309 9.604 0.088 0.828 0.384 1.557 0.886 2.079 0.493 0.522 1.192 0.837 2 0.837 1.458 0.01 3.26-0.945 5.25-3.25-0.138 1.044 0.049 1.803 0.502 2.275 0.601 0.61 1.557 0.61 2.532 0.207 1.911-0.77 4.098-3.094 4.817-6.285 4.325 0.217 8.009-2.512 9.713-5.191 0.867-1.369 1.261-2.729 0.857-3.753-0.295 0-0.394-0.099-0.394-0.197l0.19-0.17zm-0.3 0.59c0.295 0.749 0.01 1.99-0.808 3.271-1.635 2.57-5.27 5.26-9.457 4.945l-0.236-0.01-0.049 0.227c-0.621 3.122-2.797 5.407-4.541 6.107-0.857 0.354-1.557 0.314-1.951-0.09-0.394-0.403-0.562-1.29-0.158-2.816l0.355-1.291-0.82 1.05c-2.197 2.846-4.147 3.881-5.497 3.881-0.68-0.01-1.222-0.256-1.625-0.68s-0.66-1.034-0.739-1.764c-0.295-2.926 2.492-7.732 10.994-9.053l0.147-0.02 0.059-0.138c1.389-3.152 3.822-5.339 6.068-6.452 1.123-0.552 2.196-0.837 3.043-0.847 0.857-0.01 1.458 0.246 1.764 0.719 0.315 0.502 0.394 1.241 0.266 2.02-0.128 0.788-0.473 1.616-0.946 2.266s-1.063 1.153-1.684 1.31c-0.63 0.168-1.281 0.039-2-0.621l-0.305-0.286-0.128 0.414c-1.261 4.127-3.339 5.959-4.955 6.462-0.817 0.256-1.517 0.187-1.95-0.06-0.847-0.65-0.611-1.29-0.079-1.93-1.369 0.63-1.211 1.772-0.187 2.383 0.601 0.346 1.448 0.414 2.374 0.119 1.793-0.562 3.881-2.482 5.191-6.473 0.719 0.532 1.478 0.689 2.167 0.512 0.788-0.206 1.468-0.787 1.99-1.516s0.896-1.616 1.044-2.492v-0.03c0.749-0.099 1.349-0.079 1.763 0.069 0 0.295 0.295 0.591 0.493 0.985l0.42-0.18z" fill="#1E98D3"/>
<path id="svg_95" d="m259.07 253.84c-17.711-13.357-0.395-23.503 9.289-20.056-40.89-25.74-29.896-82.785-0.67-23.198-9.574-71.014 12.471-62.118 12.048-31.453l1.517-4.285c5.713-26.41-28.055-44.131-18.193 21.849-20.323-41.245-43.432 3.803-3.172 34.152-15.762 1.616-13.841 17.83-5.418 21.169l4.541 2.482 0.196-0.591-0.15-0.06z" fill="#77B0E0"/>
<path id="svg_94" d="m346.84 275.61c-3.753 0.01-7.763 0.817-11.506 2.709-5.516 2.778-9.151 5.812-12.244 11.161 4.138-3.262 9.092-5.971 13.485-7.979 5.191-2.364 10.501-3.093 14.757-1.911 5.585 1.557 9.742 6.137 10.383 15.869 2.285 35.078-2.532 54.957-19.672 74.974-3.074 3.596-5.881 5.714-8.275 6.649-2.394 0.945-4.324 0.817-6.226-0.128-3.812-1.901-7.457-7.851-9.949-16.52-2.403-8.334-2.866-16.304-0.886-23.247 1.379-4.887 3.939-9.3 7.969-13.072 6.098-5.703 13.22-9.428 13.998-20.647-3.989 10.206-10.334 12.737-15.919 17.82-4.688 4.255-7.742 9.378-9.328 14.963-2.197 7.743-1.626 16.353 0.896 25.129 2.62 9.083 6.284 15.909 11.692 18.618 2.709 1.35 5.861 1.487 9.004 0.246 3.132-1.241 6.304-3.743 9.614-7.604 17.662-20.638 22.784-41.925 20.469-77.407-0.699-10.697-5.93-17.002-12.854-18.923-1.675-0.492-3.448-0.689-5.319-0.689l-0.09-0.01z" fill="#77B0E0"/>
<path id="svg_93" d="m304.08 278.86c-7.122 7.072-8.698 13.574-7.467 21.012 0.521 3.182 1.537 5.771 3.054 7.84 2.167 2.976 5.349 4.709 9.043 5.468 7.397 1.517 17.042-0.403 28.341-2.965l0.492-3.636c-11.229 2.552-21.928 4.542-28.144 3.271-3.103-0.641-5.358-1.912-6.993-4.147-1.064-1.458-1.883-3.398-2.355-5.931-1.28-6.797 0.592-14.874 4.039-20.981v0.07z" fill="#77B0E0"/>
<path id="svg_92" d="m326.44 285.56c-0.345-3.005-1.173-6.138-2.315-9.023 2.178 2.167 3.724 4.531 4.808 7.073l-2.403 1.803-0.197 0.196 0.11-0.05z" fill="#77B0E0"/>
<path id="svg_91" d="m363.88 319.54c2.138-0.443 4.344-0.927 6.609-1.449l0.503-3.635c-2.424 0.553-4.817 1.074-7.152 1.547 0 0 0 3.35 0.099 3.547l-0.06-0.02z" fill="#77B0E0"/>
<path id="svg_90" d="m239.36 314.81c-6.492 3.684-12.934 7.023-21.504 8.027-5.802 0.67-10.55 0.582-15.712-2.758 3.645 6.029 10.087 6.836 16.185 6.117 9.19-1.084 16.165-4.709 22.716-8.432l-1.773-2.857 0.07-0.1z" fill="#77B0E0"/>
</svg>
