<?xml version="1.0" encoding="UTF-8"?>
<svg width="498px" height="411px" viewBox="0 0 498 411" version="1.1" xmlns="http://www.w3.org/2000/svg" xmlns:xlink="http://www.w3.org/1999/xlink">
    <!-- Generator: Sketch 42 (36781) - http://www.bohemiancoding.com/sketch -->
    <title>Artboard</title>
    <desc>Created with Sketch.</desc>
    <defs>
        <linearGradient x1="19.9901437%" y1="-5.13904841%" x2="56.774817%" y2="65.9655908%" id="linearGradient-1">
            <stop stop-color="#460025" offset="0%"></stop>
            <stop stop-color="#C6006F" offset="100%"></stop>
        </linearGradient>
        <linearGradient x1="-2.71272774%" y1="49.9998845%" x2="102.709956%" y2="49.9998845%" id="linearGradient-2">
            <stop stop-color="#FFFFFF" offset="0%"></stop>
            <stop stop-color="#000000" offset="100%"></stop>
        </linearGradient>
    </defs>
    <g id="Page-1" stroke="none" stroke-width="1" fill="none" fill-rule="evenodd">
        <g id="Artboard">
            <g id="rainbow_dash" transform="translate(8.000000, 8.000000)">
                <g id="Group" stroke="#FFFFFF" stroke-width="10" stroke-linejoin="round">
                    <path d="M403.054,141.458 C420.123,128.216 432.566,117.632 441.709,109.513 C469.291,85.026 455.361,67.536 418.699,94.714 C417.938,89.093 416.751,83.152 415.46,77.015 C424.644,57.309 425.95,25.399 407.05,7.848 C404.968,5.92 403.419,6.202 401.716,7.108 C396.028,10.133 390.614,16.181 386.475,22.711 C367.48,8.774 343.395,0.737 319.482,0.547 L319.329,0.305 C313.696,0.267 308.083,0.656 302.558,1.502 C285.492,4.13 269.304,11.235 255.883,23.271 C247.436,15.387 240.118,22.143 241.381,39.885 C240.275,41.505 239.202,43.173 238.169,44.898 C236.088,48.382 234.494,51.431 233.219,54.478 C206.06,13.483 181.112,25.186 229.573,111.248 C190.784,70.866 173.978,100.897 225.248,148.601 C221.971,151.665 218.776,154.794 215.692,157.94 C211.504,162.214 208,165.778 204.144,170.587 C208.618,168.258 213.707,166.005 218.205,164.46 C218.422,166.011 218.929,167.691 219.709,169.449 C217.041,171.45 214.503,173.454 212.105,175.458 C206.299,175.902 201.247,177.408 196.826,179.717 C175.387,151.243 147.346,140.828 120.638,141.214 L120.519,141.373 L120.521,141.39 C118.73,141.419 116.938,141.488 115.155,141.615 C91.33,143.25 68.966,153.133 53.377,166.298 C46.425,172.169 40.642,177.894 34.975,185.508 C42.472,179.452 50.981,174.71 58.946,171.098 C66.764,167.553 74.817,164.584 83.239,162.393 C34.927,193.657 17.849,227.102 12.406,258.853 C6.661,292.385 13.584,323.922 9.621,349.13 L7.967,359.763 L12.786,350.153 C15.405,344.943 17.431,339.764 19.173,334.214 C18.677,344.545 16.924,354.915 13.419,365.148 C9.495,376.598 6.185,384.602 0.498,394.904 C9.864,384.933 17.985,374.418 23.321,364.536 L22.367,368.498 L20.362,376.873 L25.376,369.872 C40.619,348.572 52.452,322.186 57.857,295.741 C57.967,295.961 58.08,296.179 58.208,296.385 C58.463,296.795 58.773,297.152 59.111,297.476 C60.373,308.732 61.328,320.604 61.548,330.652 L61.801,341.958 L64.848,331.071 C67.953,319.972 70.729,308.861 73.236,297.754 C73.794,297.605 74.367,297.448 74.965,297.281 C88.074,293.621 101.098,288.442 113.173,282.719 C112.683,283.297 112.227,283.929 111.824,284.638 C109.204,289.263 108.864,296.323 111.902,308.512 C113.177,313.605 114.083,317.655 114.979,320.799 C115.884,323.945 116.731,326.253 118.279,327.82 C119.826,329.387 122.125,329.816 124.559,329.232 C127.003,328.657 129.856,327.284 133.702,325.219 C165.617,308.054 194.383,279.764 206.257,265.137 C208.288,265.401 210.404,265.343 212.482,265.098 C221.264,264.062 227.999,260.678 234.288,257.128 C242.288,259.866 251.881,261.893 262.711,261.812 C281.703,261.67 296.761,258.343 308.967,252.736 C314.355,252.556 320.545,251.368 327.398,249.848 C323.841,254.412 319.586,256.709 315.699,260.247 C311.066,264.452 308.047,269.517 306.479,275.036 C304.307,282.69 304.872,291.2 307.365,299.874 C309.955,308.853 313.577,315.6 318.922,318.277 C321.6,319.611 324.715,319.746 327.821,318.52 C330.918,317.292 334.052,314.82 337.324,311.004 C341.643,305.956 345.201,300.869 348.079,295.541 C348.914,298.83 350.169,302.127 351.779,305.392 C355.488,312.929 359.762,318.362 364.991,319.9 C367.61,320.67 370.444,320.299 373.024,318.703 C375.604,317.118 377.989,314.409 380.287,310.505 C392.507,289.707 393.655,270.264 386.091,239.642 C383.803,230.373 378.185,225.613 371.77,225.009 C371.378,224.814 370.991,224.814 370.6,224.814 L370.56,224.934 L370.562,224.934 C365.964,224.839 361.177,226.621 356.86,229.669 C356.268,227.061 355.355,224.801 354.174,222.897 C384.063,228.121 407.967,211.252 384.047,200.096 C464.112,195.998 472.388,157.967 414.28,166.963 C529.075,117.604 478.279,91.549 403.054,141.458 Z M160.938,213.336 L160.939,213.344 C160.539,213.334 160.14,213.373 159.76,213.442 C156.663,213.967 154.288,216.061 150.656,217.902 C131.315,227.722 111.909,235.897 91.882,240.828 C100.406,222.919 113.455,211.161 127.24,204.268 C145.433,195.171 164.957,194.75 176.627,199.852 C175.759,201.212 174.92,202.59 174.113,203.975 C171.901,207.772 170.199,212.753 168.37,217.674 C167.038,216.197 165.826,215.132 164.597,214.405 C163.321,213.627 162.163,213.237 160.888,213.237 L160.938,213.336 Z M167.726,251.999 C155.998,260.429 143.882,267.774 131.048,273.518 C145.835,265.312 158.025,257.035 165.433,251.142 C166.177,251.466 166.943,251.749 167.726,251.999 Z M281.305,108.3 C282.332,109.542 283.295,110.672 284.242,111.744 C281.757,112.3 279.238,113.046 276.7,113.945 C276.753,109.983 276.812,106.101 276.811,102.228 C278.179,104.287 279.665,106.315 281.305,108.3 Z M357.824,258.199 C358.865,257.978 359.92,257.748 360.99,257.508 C360.002,259.73 358.801,261.736 357.402,263.586 C357.579,261.832 357.719,260.036 357.824,258.199 Z M242.736,50.201 C242.772,50.165 242.81,50.131 242.846,50.095 C244.086,56.407 245.635,63.775 247.619,72.334 C247.31,75.027 247.154,77.704 247.138,80.366 C243.476,72.047 239.612,64.711 235.745,58.428 C237.876,55.471 240.207,52.745 242.736,50.201 Z" id="Shape"></path>
                    <polygon id="Shape" points="319.323 0.295 319.328 0.303 319.344 0.303"></polygon>
                </g>
                <path d="M11.672,288.997 L11.497,299.931 L16.959,282.872 L45.486,216.964 L86.37,177.267 L124.411,161.815 L173.027,158.962 L164.76,153.198 L147.526,146.655 C147.526,146.655 129.941,143.335 129.338,143.208 C128.734,143.082 111.335,143.685 111.335,143.685 L89.885,147.434 L73.898,154.385 L58.387,164.492 C58.387,164.492 50.481,172.866 50.54,172.515 C50.599,172.165 66.47,165.495 66.47,165.495 L81.737,160.744 L91.25,159.02 L75.682,169.662 L59.16,182.437 C59.16,182.437 47.272,194.141 46.98,194.257 C46.688,194.374 33.427,210.303 33.427,210.303 L23.146,228.734 L16.485,246.435 L12.327,266.765 L11.646,289.159 L11.677,289 L11.672,288.997 Z" id="svg_173" fill="#672F89" fill-rule="nonzero"></path>
                <path d="M12.256,302.529 C20.24,200.355 101.687,137.69 171.421,158.397 L183.067,166.42 L195.793,181.395 C195.793,181.395 192.045,184.783 191.393,184.306 C190.741,183.83 162.573,171.59 162.573,171.59 L121.202,172.067 L85.186,191.199 L56.068,224.122 L37.997,261.079 L28.61,302.44 L18.27,331.922 L12.565,346.536 L13.159,329.896 L12.322,315.875 L12.226,302.439 L12.253,302.507 L12.256,302.529 Z" id="svg_172" fill="#1E98D3" fill-rule="nonzero"></path>
                <path d="M193.646,183.059 C154.307,143.908 38.691,154.671 21.661,318.62 L20.892,336.215 L18.447,353.331 L14.406,365.872 L9.061,380.485 C9.061,380.485 17.385,371.752 17.503,371.276 C17.621,370.798 28.671,350.419 28.671,350.419 L42.341,313.09 C42.341,313.09 51.377,267.922 50.9,267.453 C50.424,266.977 63.139,233.337 63.139,233.337 L85.611,204.468 L126.456,182.454 L183.951,192.871 L193.59,182.941 L193.65,183.069 L193.646,183.059 Z" id="svg_171" fill="#62BC4D" fill-rule="nonzero"></path>
                <path d="M27.835,350.239 C27.835,350.239 35.283,322.666 36.753,308.517 C50.053,180.369 138.372,159.701 186.163,190.134 L179.737,199.403 L170.828,196.434 L145.747,193.103 L105.098,203.209 L72.179,235.535 L55.412,298.181 L49.589,319.095 L43.524,334.907 L33.418,354.745 C33.418,354.745 24.976,366.389 24.976,365.553 C25.073,364.775 27.897,350.267 27.897,350.267 L27.829,350.237 L27.835,350.239 Z" id="svg_170" fill="#FDF6AF" fill-rule="nonzero"></path>
                <path d="M177.683,197.668 C146.546,177.328 105.204,191.28 77.981,223.226 C58.06,246.613 54.731,280.593 50.445,315.928 L57.699,290.202 L83.364,236.233 L112.136,207.237 L134.238,199.389 L153.614,194.756 L165.736,194.756 L177.711,197.677 L177.682,197.677 L177.682,197.668 L177.683,197.668 Z" id="svg_169" fill="#F37033" fill-rule="nonzero"></path>
                <path d="M58.894,289.581 C67.18,244.577 92.174,195.174 152.103,194.862 L133.019,199.819 L119.242,206.879 L102.515,220.49 L92.098,236.552 L88.651,244.625 L70.326,301.186 L64.105,326.15 L61.923,311.361 L59.985,294.38 L59.236,289.424 L58.944,289.618 L58.895,289.579 L58.894,289.581 Z" id="svg_168" fill="#EE4144" fill-rule="nonzero"></path>
                <path d="M120.523,141.387 C118.732,141.416 116.94,141.485 115.157,141.612 C91.332,143.247 68.968,153.13 53.379,166.295 C46.427,172.166 40.644,177.891 34.977,185.505 C42.474,179.449 50.983,174.707 58.948,171.095 C66.766,167.55 74.819,164.581 83.241,162.39 C34.929,193.654 17.851,227.099 12.408,258.85 C6.663,292.382 13.586,323.919 9.623,349.127 L7.969,359.76 L12.788,350.15 C15.407,344.94 17.433,339.761 19.175,334.211 C18.679,344.542 16.926,354.912 13.421,365.145 C9.497,376.595 6.187,384.599 0.5,394.901 C9.866,384.93 17.987,374.415 23.323,364.533 L22.369,368.495 L20.364,376.87 L25.378,369.869 C41.258,347.68 53.458,319.969 58.522,292.423 C60.069,305.101 61.296,319.083 61.549,330.649 L61.802,341.955 L64.849,331.068 C71.479,307.369 76.66,283.613 80.759,259.963 L80.924,264.121 L81.508,278.453 L84.254,264.374 C90.446,232.711 108.138,213.821 127.241,204.27 C146.345,194.717 166.937,194.717 178.339,200.648 L179.897,197.669 C167.064,190.989 145.693,191.291 125.741,201.272 C108.216,210.025 91.859,226.42 83.816,252.361 C82.395,246.148 82.696,240.529 82.92,234.737 C78.363,246.05 77.253,261.017 75.15,272.125 C72.142,287.977 68.598,303.867 64.441,319.728 C63.643,306.516 62.017,291.999 60.254,280.089 L58.325,267.062 L56.924,280.159 C53.974,307.732 42.991,336.571 27.812,360.241 C30.031,352.949 31.366,345.977 31.891,338.422 C29.193,345.734 25.221,353.271 22.145,359.453 C19.662,364.429 16.868,369.267 13.742,373.911 C20.762,356.658 23.44,339.103 22.476,321.723 L21.833,310.157 L19.166,321.432 C17.647,327.828 16.05,333.466 14.054,338.822 C15.417,315.015 10.87,287.763 15.72,259.421 C20.881,229.305 36.566,198.089 81.053,167.858 C88.502,162.795 94.119,159.727 102.326,156.086 C93.836,156.369 84.995,158.258 77.713,160.42 C69.991,162.718 62.582,165.677 55.388,169.046 C70.441,156.36 92.26,146.565 115.385,144.967 C142.949,143.068 172.286,152.611 194.777,182.57 L197.464,180.554 C175.946,151.441 147.612,140.828 120.643,141.218 L120.524,141.377 L120.523,141.387 Z" id="svg_167" fill="#1E98D3" fill-rule="nonzero"></path>
                <polygon id="svg_166" fill="#88C4EB" fill-rule="nonzero" points="233.766 255.202 223.426 260.849 204.703 264.053 194.479 275.881 180.517 289.017 162.271 304.946 141.765 318.617 124.055 327.886 119.011 326.581 115.087 314.576 111.046 295.735 112.712 286.107 117.405 280.342 138.913 271.841 170.771 251.512 183.847 251.337 199.065 246.877 209.999 241.833 218.851 248.669 233.845 255.183 233.776 255.193"></polygon>
                <polygon id="svg_165" fill="#1E98D3" fill-rule="nonzero" points="224.9 150.539 210.636 165.339 222.943 162.603 221.277 170.801 213.43 176.984 240.829 184.121 292.297 176.634 301.449 173.898 314.993 154.522 303.348 140.142 224.968 150.658 224.909 150.559"></polygon>
                <path d="M222.765,152.872 C247.604,154.927 270.271,152.522 290.628,145.16 L288.448,124.315 L286.763,112.884 L272.139,117.091 L226.59,149.864 L224.488,151.47 L222.736,152.823 L222.765,152.872 L222.765,152.872 Z" id="svg_164" fill="#62BC4D" fill-rule="nonzero"></path>
                <path d="M286.439,111.299 C263.167,115.516 236.859,136.341 215.691,157.938 C211.503,162.212 207.999,165.776 204.143,170.585 C209.157,167.976 214.951,165.455 219.81,163.925 C223.549,162.757 227.472,161.812 231.533,161.141 C223.383,166.525 216.139,171.919 209.908,177.324 L212.118,179.865 C219.713,173.273 228.836,166.643 239.468,160.011 L245.301,156.38 L238.446,156.916 C230.959,157.5 223.764,159.048 217.181,161.259 C238.27,139.546 264.939,118.613 287.041,114.611 L286.457,111.202 L286.437,111.311 L286.439,111.299 Z" id="svg_163" fill="#1E98D3" fill-rule="nonzero"></path>
                <polygon id="svg_162" fill="#88C4EB" fill-rule="nonzero" points="355.855 231.937 365.105 226.805 374.179 227.234 380.313 231.431 384.763 240.758 388.131 257.399 388.968 270.68 388.462 283.287 384.763 297.913 379.641 307.493 374.257 316.148 367.538 319.089 361.4 316.054 353.913 305.967 348.198 291.09 352.988 278.481 355.345 267.136 360.135 261.928 362.238 255.871 356.105 256.719 355.812 232.183 355.852 231.926"></polygon>
                <path d="M350.211,220.836 L364.417,221.927 L379.966,220.243 L388.875,215.793 L391.475,211.002 L388.536,205.374 L380.473,198.395 L406.694,195.62 L429.809,190.158 L444.687,182.934 L450.226,175.281 L445.601,170.072 L436.361,168.055 L425.017,167.549 L409.973,167.89 L431.228,157.131 L459.727,141.163 L472.162,131.913 L478.967,122.673 L478.131,118.885 C478.131,118.885 472.921,116.538 472.415,116.364 C471.908,116.189 462.582,117.289 462.582,117.289 L443.089,123.345 L418.036,134.435 L394.922,146.956 L407.112,135.954 L428.541,117.961 L446.194,101.915 L452.835,92.16 L453.672,84.342 L449.641,83.339 L439.047,84.682 L416.606,97.456 L392.907,130.736 L380.638,147.715 L368.369,169.399 L360.21,186.964 L353.492,201.256 L345.09,216.465 L350.152,220.944 L350.241,220.805 L350.211,220.836 Z" id="svg_161" fill="#88C4EB" fill-rule="nonzero"></path>
                <path d="M322.367,208.085 C361.459,240.645 416.345,215.154 384.048,200.091 C464.113,195.993 472.389,157.962 414.281,166.958 C529.075,117.604 478.279,91.549 403.053,141.458 C420.122,128.216 432.565,117.632 441.708,109.513 C473.896,80.936 449.554,61.882 398.517,112.239 C374.544,135.889 367.807,159.783 324.314,193.062 C357.497,177.114 374.333,144.087 400.767,115.773 C433.024,81.218 478.825,70.196 432.372,112.453 C423.667,120.36 409.548,129.95 395.976,143.6 C391.312,148.303 397.496,143.269 393.201,149.024 C396.405,146.571 388.858,154.447 392.092,152.207 C463.539,102.979 538.467,106.942 398.255,171.417 C492.261,161.622 431.272,198.388 377.623,195.866 C373.075,195.651 379.288,197.307 374.946,196.479 C378.012,197.492 370.057,196.363 372.521,197.375 C420.425,216.946 354.898,231.259 322.573,208.086 L322.356,208.086 L322.367,208.086 L322.367,208.085 Z" id="svg_160" fill="#77B0E0" fill-rule="nonzero"></path>
                <path d="M345.932,218.305 C367.869,218.433 360.342,200.078 350.664,196.983 C398.226,201.286 423.805,149.868 365.103,179.155 C415.206,129.098 392.559,122.877 374.499,147.219 L375.88,142.935 C387.225,118.759 424.388,125.088 377.059,171.015 C417.778,150.802 408.908,200.05 359.076,199.748 C370.487,210.469 359.263,222.054 350.645,219.64 L345.582,218.86 L345.972,218.375 L345.913,218.296 L345.932,218.305 Z" id="svg_159" fill="#77B0E0" fill-rule="nonzero"></path>
                <path d="M194.723,231.354 C194.352,231.431 194.002,231.539 193.671,231.686 C190.965,232.793 189.232,235.18 186.311,237.595 C166.564,253.913 146.206,267.866 123.49,276.688 C119.108,278.392 114.445,280.018 111.825,284.632 C109.205,289.257 108.865,296.317 111.903,308.506 C113.178,313.599 114.084,317.649 114.98,320.793 C115.885,323.939 116.732,326.247 118.28,327.814 C119.827,329.381 122.126,329.81 124.56,329.226 C127.004,328.651 129.857,327.278 133.703,325.213 C165.998,307.844 195.082,279.071 206.688,264.605 L204.118,262.774 C192.843,276.824 163.934,305.399 132.213,322.449 C128.445,324.474 125.69,325.739 123.839,326.178 C121.98,326.616 121.318,326.443 120.519,325.623 C119.72,324.805 118.853,322.926 117.997,319.936 C117.13,316.938 116.225,312.876 114.94,307.747 C111.989,295.897 112.564,289.685 114.55,286.18 C116.536,282.676 120.188,281.332 124.627,279.609 C147.781,270.612 168.423,256.435 188.304,240.01 C191.469,237.391 193.376,235.18 194.856,234.577 C195.596,234.265 196.219,234.207 197.3,234.548 C198.37,234.898 200.046,235.882 202.013,237.43 L203.776,234.831 C201.644,233.155 199.91,232.104 198.264,231.567 C196.901,231.177 195.635,231.082 194.565,231.275 L194.733,231.355 L194.723,231.354 Z" id="svg_158" fill="#77B0E0" fill-rule="nonzero"></path>
                <polygon id="svg_157" fill="#9EDBF9" fill-rule="nonzero" points="298.902 174.489 275.008 180.428 220.22 177.224 206.073 177.935 190.144 185.539 182.062 194.575 172.91 208.596 168.256 220.338 162.375 214.962 156.573 216.14 143.632 223.024 113.371 236.227 87.656 243.364 67.064 247.658 61.183 252.273 58.827 259.333 57.484 273.792 57.99 289.176 60.172 296.653 66.394 297.667 86.061 292.369 113.294 281.278 141.443 265.049 164.811 249.509 174.265 251.728 186.708 251.184 202.208 246.1 209.442 241.768 218.517 248.077 239.022 257.406 257.181 260.005 274.824 259.928 290.967 256.988 308.193 251.35 320.547 244.046 334.169 231.858 344.168 218.829 352.824 202.774 361.392 184.625 373.241 159.319 381.731 147.304 397.952 124.696 404.505 107.881 407.368 87.211 413.005 78.72 417.874 64.096 420.308 48.966 417.62 30.476 411.651 17.117 404.261 8.461 394.505 15.774 384.924 28.042 379.802 39.727 364.078 42.16 346.007 48.382 330.633 62.335 324.499 70.825 327.605 54.681 321.129 57.709 305.667 72.081 296.158 85.524 290.608 102.086 286.49 114.101 288.428 125.951 284.133 127.713 280.609 131.754 281.864 137.547 288.254 143.857 295.4 146.631 302.207 145.288 306.248 141.422 309.188 132.425 317.337 144.363 312.965 156.378 308.263 163.183 306.578 166.211 304.562 170.077 298.818 174.361 298.866 174.489"></polygon>
                <polygon id="svg_156" fill="#FFFFFF" fill-rule="nonzero" points="286.34 112.367 287.051 119.095 288.659 125.774 295.592 122.833 298.882 119.405 299.661 118.411 300.459 116.269 302.416 106.436 302.913 96.008 302.173 87.479 299.944 80.498 294.451 89.524 290.937 100.584 289.456 113.836 286.438 112.278 286.349 112.367"></polygon>
                <path d="M294.436,92.677 C294.124,92.677 293.816,92.712 293.511,92.756 L291.013,100.593 L289.455,113.835 L286.341,112.374 L287.119,119.091 L288.678,125.81 L295.591,122.888 L298.901,119.383 L299.68,118.41 L300.458,116.268 L302.405,106.434 L302.801,99.392 C300.815,95.29 297.8,92.671 294.44,92.671 L294.436,92.677 Z" id="Shape" fill="#A8005B" fill-rule="nonzero"></path>
                <path d="M287.12,116.36 L290.859,115.902 L291.57,119.212 C291.57,119.212 287.684,119.913 287.733,119.806 C287.831,119.709 287.149,116.398 287.149,116.398 L287.12,116.36 L287.12,116.36 Z" id="svg_152" fill="#D9559F" fill-rule="nonzero"></path>
                <polygon id="svg_151" fill="#F7B9D4" fill-rule="nonzero" points="291.312 120.837 288.137 122.015 287.719 118.928 291.077 118.675 291.271 120.915 291.299 120.836"></polygon>
                <path d="M302.569,103.471 C301.011,100.414 298.728,98.498 296.264,98.553 C294.101,98.615 292.169,100.157 290.775,102.601 L289.453,113.83 L288.548,113.405 C288.774,117.967 290.249,121.921 292.371,124.244 L295.589,122.885 L298.899,119.38 L299.678,118.407 L300.456,116.265 L302.403,106.431 L302.571,103.486 L302.569,103.471 Z" id="Shape" fill="#000000" fill-rule="nonzero"></path>
                <path d="M312.532,154.335 L302.231,169.933 C300.313,172.844 297.859,176.856 294.958,180.01 C299.301,178.588 303.002,174.869 305.299,171.393 L315.337,156.184 L312.611,154.334 L312.532,154.335 L312.532,154.335 Z" id="svg_147" fill="#77B0E0" fill-rule="nonzero"></path>
                <path d="M304.062,144.985 C310.664,152.082 316.037,160.817 318.56,169.53 C318.56,169.53 321.373,164.233 321.461,164.018 C321.548,163.813 321.792,155.451 321.792,155.451 L318.481,147.214 L313.982,138.139 L309.017,132.551 L307.293,139.649 L304.09,145.004 L304.05,144.984 L304.062,144.984 L304.062,144.985 Z" id="svg_146" fill="#A8005B" fill-rule="nonzero"></path>
                <path d="M365.047,79.877 C377.812,86.283 381.434,104.861 373.148,121.365 C364.863,137.868 347.804,146.046 335.04,139.64 C322.275,133.233 318.644,114.656 326.939,98.152 C335.117,81.6 352.253,73.421 365.009,79.847 L365.047,79.877 L365.047,79.877 Z" id="svg_145" fill="#FFFFFF" fill-rule="nonzero"></path>
                <path d="M355.213,138.936 C358.43,133.712 359.731,126.54 358.291,118.987 L358.312,118.939 C355.684,105.21 344.973,95.377 334.263,97.031 C330.179,97.674 326.706,99.922 324.125,103.224 C318.886,118.26 322.984,133.771 334.423,139.512 C340.827,142.724 348.31,142.27 355.219,138.929 L355.213,138.936 Z" id="Shape" fill="url(#linearGradient-1)" fill-rule="nonzero"></path>
                <path d="M344.784,129.081 L344.687,131.906 L344.657,131.945 L352.875,139.928 C353.668,139.623 354.46,139.289 355.236,138.899 C355.993,137.663 356.642,136.321 357.174,134.888 L344.788,129.076 L344.784,129.081 Z" id="Shape" fill="#F7B9D4" fill-rule="nonzero"></path>
                <path d="M358.563,129.397 L345.347,127.655 L345.326,127.675 L344.841,130.597 L356.997,135.365 C357.718,133.516 358.252,131.51 358.559,129.395 L358.563,129.397 Z" id="Shape" fill="#D9559F" fill-rule="nonzero"></path>
                <path d="M346.9,122.982 L346.862,122.934 C345.887,112.614 339.462,104.824 332.451,105.603 C327.34,106.07 323.341,110.857 321.884,117.362 C322.271,127.046 326.645,135.434 334.4,139.328 C336.211,140.237 338.11,140.843 340.055,141.182 C344.741,138.148 347.637,131.011 346.906,122.975 L346.9,122.982 Z" id="Shape" fill="#000000" fill-rule="nonzero"></path>
                <path d="M322.466,122.597 C320.45,72.59 377.809,64.527 376.943,104.097 C393.534,101.722 394.791,98.986 378.774,100.875 C376.924,58.326 313.733,75.656 322.399,122.587 L322.478,122.597 L322.466,122.597 Z" id="svg_130" fill="#000000" fill-rule="nonzero"></path>
                <path d="M375.92,91.244 C397.691,83.795 392.239,88.313 376.913,93.863 L375.94,91.234 L375.92,91.244 L375.92,91.244 Z" id="svg_129" fill="#000000" fill-rule="nonzero"></path>
                <path d="M370.365,82.675 C385.211,69.035 381.903,75.272 372.23,84.576" id="svg_128" fill="#000000" fill-rule="nonzero"></path>
                <path d="M349.925,124.248 C346.546,125.591 342.009,122.174 339.788,116.604 C337.579,111.035 338.523,105.436 341.901,104.093 C345.291,102.75 349.828,106.167 352.037,111.737 C354.278,117.383 353.303,122.934 349.895,124.298 L349.925,124.248 L349.925,124.248 Z" id="svg_127" fill="#FFFFFF" fill-rule="nonzero"></path>
                <path d="M341.157,128.537 C340.125,129.356 338.363,128.849 337.204,127.399 C336.055,125.948 335.967,124.117 336.99,123.3 C338.022,122.482 339.794,122.988 340.943,124.439 C342.013,125.9 342.111,127.739 341.137,128.528 L341.157,128.537 L341.157,128.537 Z" id="svg_126" fill="#FFFFFF" fill-rule="nonzero"></path>
                <path d="M402.015,117.724 C402.015,117.724 377.528,147.089 368.989,164.664 C358.162,186.941 349.934,210.356 335.29,228.107 C320.646,245.857 299.731,258.173 262.686,258.445 C231.333,258.68 210.76,240.648 210.76,240.648 L208.55,243.179 C208.55,243.179 230.058,262.049 262.715,261.806 C300.502,261.524 322.722,248.642 337.881,230.248 C353.051,211.856 361.307,188.177 372.019,166.134 C380.08,149.534 404.607,119.876 404.607,119.876 L401.978,117.734 L402.008,117.744 L402.015,117.724 Z" id="svg_125" fill="#77B0E0" fill-rule="nonzero"></path>
                <path d="M370.562,224.929 C365.344,224.822 359.88,227.128 355.139,230.964 C354.378,231.587 355.654,231.986 354.935,232.678 L355.246,235.356 C360.27,230.525 366.404,227.868 371.449,228.346 C376.492,228.822 380.766,232.093 382.831,240.447 C390.288,270.68 389.198,288.702 377.388,308.798 C375.276,312.401 373.162,314.669 371.264,315.838 C369.356,317.015 367.709,317.2 365.949,316.685 C362.414,315.642 358.314,311.067 354.79,303.911 C351.412,297.036 349.776,290.191 350.409,283.853 C350.895,278.974 352.775,274.233 356.182,270.173 C360.894,264.555 364.467,258.614 363.377,249.94 C361.964,256.891 359.16,262.032 355.062,266.376 C350.233,271.488 347.671,277.368 347.059,283.522 C346.347,290.66 348.189,298.108 351.781,305.389 C355.49,312.926 359.764,318.359 364.993,319.897 C367.612,320.667 370.446,320.296 373.026,318.7 C375.606,317.115 377.991,314.406 380.289,310.502 C392.509,289.704 393.657,270.261 386.093,239.639 C383.805,230.37 378.187,225.61 371.772,225.006 C371.38,224.811 370.993,224.811 370.602,224.811 L370.562,224.931 L370.562,224.931 L370.562,224.929 Z" id="svg_124" fill="#77B0E0" fill-rule="nonzero"></path>
                <polygon id="svg_123" fill="#9EDBF9" fill-rule="nonzero" points="319.838 221.716 291.603 229.114 291.515 239.367 295.467 248.277 306.392 251.217 329.507 247.859 326.138 252.98 315.72 261.89 309.674 270.214 306.558 280.974 307.825 295.511 312.274 308.198 317.659 315.938 323.538 318.372 332.614 313.582 345.806 297.449 351.941 282.57 355.563 265.424 356.488 248.695 355.981 234.413 353.46 224.491 347.326 218.104 339.342 216.672 330.765 218.609 320.678 223.898 319.899 222.145 319.85 221.71"></polygon>
                <path d="M393.543,138.273 C393.709,138.185 406.191,131.505 406.191,131.505 L413.425,123.863 L416.91,114.487 L418.039,102.676 L413.629,77.342 L406.608,88.899 L405.644,99.95 L402.363,113.308 L396.901,127.435 L393.494,138.144 L393.543,138.292 L393.543,138.273 Z" id="svg_122" fill="#62BC4D" fill-rule="nonzero"></path>
                <path d="M287.703,111.299 L285.182,111.397 C285.367,116.499 286.263,121.669 288.064,126.927 L290.45,126.109 C288.794,121.045 287.918,116.08 287.723,111.213 L287.702,111.302 L287.702,111.299 L287.703,111.299 Z" id="svg_121" fill="#77B0E0" fill-rule="nonzero"></path>
                <path d="M301.136,172.057 C301.136,172.057 289.61,175.718 276.319,178.328 C263.019,180.927 247.148,182.544 237.557,179.311 C218.697,172.962 205.154,174.705 195.029,180.712 C185.808,186.194 179.372,194.946 174.115,203.974 C170.065,210.926 167.728,221.851 163.181,229.104 C169.704,224.255 173.025,212.26 177.154,205.443 C182.411,196.758 188.399,188.569 196.754,183.615 C206.004,178.114 218.252,176.361 236.488,182.495 C247.402,186.175 263.459,184.266 276.963,181.619 C290.479,178.981 300.623,175.494 300.623,175.494 L301.11,172.086 L301.14,172.076 L301.136,172.057 Z" id="svg_120" fill="#77B0E0" fill-rule="nonzero"></path>
                <polygon id="svg_119" fill="#9EDBF9" fill-rule="nonzero" points="264.338 198.536 283.754 182.403 280.725 172.734 277.279 157.906 275.225 137.809 274.592 119.611 274.717 96.885 274.173 73.809 261.602 35.992 253.034 23.422 247.777 22.117 243.746 29.731 244.886 51.871 249.374 69.854 255.05 96.25 245.129 80.535 235.382 61.617 227.74 49.855 214.624 36.155 207.565 34.218 204.284 37.917 204.537 48.676 210.505 68.343 222.442 95.322 233.532 115.74 220.758 105.234 205.637 95.575 197.731 94.728 195.043 100.366 198.149 111.962 211.595 131.961 237.319 156.926 225.889 157.267 220.173 160.372 221.098 168.775 225.966 176.934 234.71 184.83 249.335 193.573 264.329 198.539 264.339 198.518"></polygon>
                <path d="M277.671,199.703 C226.847,201.864 198.688,148.304 233.497,155.917 C172.341,104.089 188.835,68.834 229.573,111.245 C168.261,2.361 224.451,12.478 253.963,97.789 C248.424,76.905 244.956,60.946 242.62,48.942 C234.374,6.694 265.286,6.315 275.296,77.314 C279.999,110.653 270.856,133.738 285.246,186.574 C268.548,153.762 275.197,117.299 271.361,78.747 C266.688,31.699 236.972,-4.851 248.267,56.918 C250.37,68.495 255.783,84.687 258.286,103.771 C259.143,110.333 257.292,102.583 257.205,109.759 C256.143,105.865 257.371,116.701 256.153,112.963 C229.233,30.484 167.259,-11.835 239.601,124.501 C170.812,59.675 196.995,125.903 241.168,156.447 C244.907,159.037 238.968,156.583 242.921,158.56 C239.873,157.508 246.884,161.442 244.303,160.742 C194.55,147.5 237.975,198.616 277.7,199.785 L277.65,199.706 L277.671,199.703 Z" id="svg_118" fill="#77B0E0" fill-rule="nonzero"></path>
                <path d="M249.344,88.615 L257.845,71.615 L272.76,44.752 L300.569,23.662 L350.313,7.14 L331.658,2.506 L310.675,2.204 C310.675,2.204 295.525,4.521 295.107,4.764 C294.688,4.998 277.035,10.587 277.035,10.587 L264.321,18.902 L252.197,28.649 L243.931,39.173 L236.921,51.831 L249.404,41.608 L265.157,31.443 L258.731,42.201 L252.499,56.64 L249.52,69.541 L248.692,80.593 L249.569,88.869 L249.322,88.622 L249.344,88.615 Z" id="svg_117" fill="#EE4144" fill-rule="nonzero"></path>
                <path d="M249.927,85.788 C263.041,27.192 310.448,8.889 347.574,6.327 L362.968,11.088 L377.768,18.575 L382.101,22.489 L354.468,27.67 L318.814,45.79 L301.278,78.008 L294.56,89.653 L290.519,102.788 L289.691,115.027 L280.656,104.93 L273.361,93.039 L268.377,79.252 L267.247,65.397 L267.18,57.257 L260.052,68.318 L255.419,79.369 L251.61,95.114 L249.176,88.405 L250.052,85.679 L249.934,85.797 L249.927,85.788 Z" id="svg_116" fill="#F37033" fill-rule="nonzero"></path>
                <path d="M296.758,84.424 C301.938,33.18 344.438,19.861 380.783,21.37 L386.753,24.982 L381.535,35.488 L379.519,39.694 L364.982,41.875 L353.132,45.488 L341.108,52.304 L332.199,60.288 L324.634,70.706 L327.584,54.397 L320.272,58.934 L311.109,66.587 L302.872,75.155 L296.934,84.404 L296.766,84.414 L296.758,84.424 Z" id="svg_115" fill="#FDF6AF" fill-rule="nonzero"></path>
                <path d="M319.344,0.303 C313.705,0.264 308.087,0.653 302.558,1.5 C277.019,5.433 253.438,19.376 238.169,44.896 C232.882,53.747 230.702,59.793 229.066,70.123 C232.562,62.158 237.197,55.771 242.736,50.202 C248.052,44.867 254.09,40.154 260.691,36.084 C248.58,56.005 245.024,75.303 248.257,93.763 C249.465,100.676 251.15,106.178 254.147,112.896 C253.699,106.713 253.68,99.995 254.187,94.377 C255.297,81.982 259.562,71.73 265.569,62.51 C265.249,79.062 269.97,94.582 281.304,108.301 C285.112,112.907 288.072,116.033 292.325,120.034 C291.4,114.454 291.42,108.584 292.131,103.666 C293.436,94.64 297.692,85.907 303.309,78.195 C309.853,69.227 318.237,61.74 325.781,56.862 C324.642,59.413 324.126,61.905 323.494,64.486 C322.258,69.539 321.848,73.649 322.063,78.924 C324.585,73.91 327.662,69.343 330.621,65.44 C344.848,46.638 362.566,42.646 379.956,41.088 L379.654,37.738 C361.272,39.384 341.477,44.184 326.307,65.673 C327.953,58.176 330.153,53.921 334.62,48.264 C330.016,50.406 325.07,53.152 321.419,55.702 C314.224,60.765 306.688,67.863 300.593,76.217 C293.155,86.42 287.877,98.582 288.383,111.171 C274.421,96.888 268.646,80.822 268.889,63.131 C268.949,58.973 269.201,55.507 269.785,51.33 C267.293,54.203 264.763,57.601 262.872,60.493 C257.09,69.353 252.795,79.293 251.218,90.989 C248.793,74.778 251.969,58.001 262.035,40.368 C265.19,34.848 267.917,30.671 272.142,25.598 C266.524,28.46 261.121,31.732 256.602,34.682 C250.673,38.548 245.219,42.978 240.323,47.904 C254.781,22.239 277.955,8.696 303.065,4.829 C331.624,0.429 362.663,8.695 385.7,26.288 L387.735,23.621 C368.554,9.113 343.922,0.74 319.482,0.545 L319.324,0.295 L319.344,0.303 Z" id="svg_114" fill="#1E98D3" fill-rule="nonzero"></path>
                <path d="M415.349,76.833 L412.164,78.225 C415.368,93.522 417.364,106.51 414.832,116.324 C413.108,123.023 407.267,130.403 395.115,135.417 C404.444,117.873 408.261,103.832 408.659,87.407 L406.068,88.205 C406.04,88.693 405.163,89.014 405.134,89.49 C403.86,112.06 395.436,126.771 387.599,141.805 C404.18,137.201 414.531,129.76 418.084,117.201 C421.297,106.392 418.668,92.275 415.454,76.988 L415.347,76.81 L415.349,76.833 Z" id="svg_113" fill="#1E98D3" fill-rule="nonzero"></path>
                <path d="M400.156,93.577 C419.757,87.541 434.108,32.976 407.05,7.847 C404.968,5.919 403.419,6.201 401.716,7.107 C388.533,14.117 376.82,37.349 379.048,45.216 C380.753,38.04 391.794,17.934 402.386,11.634 C403.535,10.953 404.285,11.02 405.132,11.955 C430.058,39.607 413.701,83.714 400.167,93.645 L400.147,93.575 L400.156,93.577 Z" id="svg_112" fill="#77B0E0" fill-rule="nonzero"></path>
                <path d="M404.931,33.115 C406.478,47.417 403.548,60.183 398.008,72.052 C406.09,65.626 411.249,45.958 404.92,33.106 L404.931,33.118 L404.931,33.115 Z" id="svg_111" fill="#77B0E0" fill-rule="nonzero"></path>
                <path d="M319.54,151.222 C315.237,150.638 315.48,161.747 320.378,165.048 L321.683,157.989 L319.54,151.271 L319.54,151.222 L319.54,151.222 Z" id="svg_110" fill="#F47735" fill-rule="nonzero"></path>
                <path d="M283.325,126.293 C282.011,127.13 280.929,128.26 280.209,129.653 C279.216,131.55 279.051,133.937 279.946,136.361 C280.842,138.776 282.72,141.268 285.749,143.867 C289.906,147.411 296.109,149.067 301.436,147.402 C304.102,146.565 306.526,144.812 308.085,142.086 C309.078,140.354 309.721,138.24 309.945,135.767 C312.709,139.291 315.835,144.433 317.861,149.816 C319.905,155.269 320.831,160.828 319.507,165.288 C318.65,168.199 317.481,170.185 315.184,172.289 C318.943,172.445 323.04,172.026 326.313,171.5 C332.535,170.497 338.679,168.716 344.306,166.496 C354.744,162.368 362.084,158.122 370.828,149.389 C361.189,155.455 351.715,159.925 343.108,163.332 C336.477,165.952 329.068,167.937 321.803,168.687 C324.666,162.767 323.527,155.347 321.005,148.639 C319.107,143.576 316.389,138.873 313.751,135.173 C311.774,132.399 309.807,130.432 307.129,128.513 C307.85,132.321 307.11,136.955 305.174,140.42 C304.053,142.417 302.398,143.574 300.432,144.188 C296.489,145.424 291.162,144.081 287.931,141.315 C285.193,138.968 283.724,136.865 283.101,135.191 C282.477,133.517 282.623,132.279 283.188,131.209 C283.587,130.43 284.297,129.73 285.213,129.146 C290.062,126.04 294.025,129.409 299.731,118.436 C291.661,126.42 287.95,123.498 283.471,126.323 L283.333,126.293 L283.325,126.293 L283.325,126.293 Z" id="svg_109" fill="#77B0E0" fill-rule="nonzero"></path>
                <polygon id="Shape" points="286.34 112.367 287.12 119.088 288.673 125.81 295.592 122.883 298.902 119.385 299.674 118.406 300.454 116.261 302.401 106.437 302.984 96.019 302.203 87.448 299.97 80.529 294.515 89.583 291.015 100.584 289.453 113.83"></polygon>
                <path d="M301.434,109.451 C299.728,110.065 297.393,107.873 296.204,104.564 C295.017,101.253 295.436,98.07 297.139,97.466 C298.844,96.852 301.181,99.044 302.368,102.354 C303.537,105.665 303.05,108.877 301.395,109.462 L301.435,109.462 L301.435,109.451 L301.434,109.451 Z" id="svg_106" fill="#FFFFFF" fill-rule="nonzero"></path>
                <path d="M299.684,118.406 C302.77,106.625 302.302,90.774 299.664,82.78 L301.464,80.327 C304.871,92.497 304.58,107.297 299.712,118.397 L299.683,118.397 L299.684,118.406 Z" id="svg_105" fill="#000000" fill-rule="nonzero"></path>
                <path d="M292.28,133.795 C295.541,134.34 297.595,133.161 298.229,129.949 C299.981,134.233 296.865,136.959 292.29,133.746 L292.28,133.795 L292.28,133.795 Z" id="svg_104" fill="#77B0E0" fill-rule="nonzero"></path>
                <path d="M299.001,114.611 C298.466,115.01 297.511,114.63 296.868,113.774 C296.226,112.917 296.139,111.895 296.675,111.495 C297.21,111.096 298.165,111.466 298.807,112.332 C299.391,113.111 299.488,114.183 299.001,114.572 L299.001,114.601 L299.001,114.611 L299.001,114.611 Z" id="svg_103" fill="#FFFFFF" fill-rule="nonzero"></path>
                <path d="M187.804,248.877 C176.588,251.477 165.176,251.302 156.579,243.532 C162.996,253.978 176.665,254.729 188.621,252.207 C201.171,249.558 212.904,244.457 218.026,232.791 C209.555,241.943 199.039,246.229 187.842,248.857 L187.804,248.877 L187.804,248.877 Z" id="svg_102" fill="#77B0E0" fill-rule="nonzero"></path>
                <path d="M160.939,213.344 C160.539,213.334 160.14,213.373 159.76,213.442 C156.663,213.967 154.288,216.061 150.656,217.902 C126.15,230.345 101.545,240.169 75.695,244.064 C70.699,244.813 65.442,245.418 61.607,249.643 C57.771,253.86 55.764,261.182 56.076,274.658 C56.213,280.295 56.202,284.734 56.407,288.25 C56.612,291.766 56.963,294.365 58.208,296.381 C59.454,298.386 61.771,299.368 64.458,299.33 C67.146,299.302 70.466,298.531 74.964,297.276 C112.878,286.692 150.091,263.402 165.64,250.978 L163.38,248.457 C148.279,260.52 111.29,283.635 74.067,294.033 C69.637,295.269 66.463,295.941 64.418,295.97 C62.374,295.999 61.712,295.65 61.068,294.608 C60.426,293.566 59.958,291.395 59.763,288.055 C59.568,284.715 59.568,280.256 59.432,274.579 C59.13,261.474 61.194,255.096 64.096,251.902 C66.998,248.71 71.136,248.153 76.189,247.394 C102.555,243.412 127.501,233.432 152.183,220.9 C156.117,218.904 158.638,217.045 160.323,216.754 C161.17,216.607 161.842,216.686 162.884,217.298 C163.935,217.922 165.455,219.335 167.148,221.418 L169.601,219.109 C167.761,216.859 166.193,215.351 164.597,214.406 C163.321,213.628 162.163,213.238 160.888,213.238 L160.938,213.337 L160.939,213.344 Z" id="svg_101" fill="#77B0E0" fill-rule="nonzero"></path>
                <path d="M200.565,201.266 C199.894,203.564 198.802,205.579 197.459,207.419 C197.265,206.747 197.021,206.27 196.769,205.822 C190.401,215.403 183.098,224.546 175.494,233.338 L176,232.853 L177.032,231.85 L181.413,227.359 L185.98,222.774 L196.261,211.373 L196.64,213.495 L204.78,202.221 L203.328,197.557 L200.077,200.098 L200.369,201.169 L200.577,201.258 L200.565,201.266 Z" id="svg_100" fill="#1E98D3" fill-rule="nonzero"></path>
                <path d="M202.798,202.629 C201.259,205.687 199.109,208.461 197.044,211.275 C197.014,210.554 196.918,209.933 196.683,209.523 C189.965,217.701 182.75,225.676 175.535,233.348 L180.063,229.19 L183.393,226.095 L194.356,215.316 L194.804,217.429 L196.537,215.743 L201.832,209.825 L207.724,200.808 L204.014,201.294 L202.846,202.658 L202.806,202.618 L202.798,202.629 Z" id="svg_99" fill="#FDF6AF" fill-rule="nonzero"></path>
                <polygon id="svg_98" fill="#FFFFFF" fill-rule="nonzero" points="202.512 199.417 202.298 201.15 202.57 202.407 203.379 202.855 204.732 202.639 206.446 201.597 208.111 199.912 208.891 198.491 209.475 196.505 210.517 196.399 212.591 196.057 215.375 194.822 217.858 192.893 219.542 190.81 220.039 189.106 220.029 188.171 219.445 187.109 218.13 186.739 216.914 186.768 216.846 185.61 216.32 184.471 214.966 184.053 212.785 184.383 210.692 185.24 208.199 187.255 206.563 188.998 205.297 191.462 204.012 191.754 201.121 192.464 199.154 193.4 197.187 194.781 195.601 196.447 194.296 199.164 194.384 201.121 194.832 202.366 195.689 203.098 196.682 203.389 198.114 203.087 199.565 202.249 201.667 200.379 202.251 199.503 202.508 199.424"></polygon>
                <path d="M214.581,195.324 C207.833,205.411 200.278,214.214 192.392,222.48 C193.288,220.348 194.077,218.245 193.833,216.434 C187.943,222.694 181.633,227.826 175.48,233.366 C182.208,226.96 188.965,220.611 195.313,213.299 C195.507,213.922 195.41,215.012 195.01,216.58 C199.265,211.576 203.491,206.559 207.035,201.04 L208.554,199.044 L209.235,197.496 L209.488,196.395 L210.813,196.541 L212.644,196.095 L214.396,195.413 L214.574,195.324 L214.581,195.324 L214.581,195.324 Z" id="svg_97" fill="#EE4144" fill-rule="nonzero"></path>
                <path d="M220.037,187.437 C219.812,187.106 219.472,186.843 219.024,186.688 C218.537,186.523 217.894,186.502 217.165,186.59 C217.194,185.928 217.078,185.295 216.756,184.779 C216.338,184.117 215.52,183.814 214.566,183.824 C213.621,183.844 212.492,184.145 211.324,184.72 C209.036,185.859 206.592,188.07 205.152,191.235 C196.681,192.598 193.643,197.475 193.974,200.727 C194.061,201.545 194.353,202.266 194.849,202.781 C195.336,203.298 196.028,203.609 196.826,203.609 C198.267,203.619 200.048,202.675 202.015,200.397 C201.879,201.429 202.064,202.179 202.512,202.646 C203.106,203.249 204.051,203.249 205.014,202.851 C206.903,202.089 209.065,199.791 209.775,196.638 C214.05,196.853 217.692,194.155 219.375,191.507 C220.232,190.154 220.622,188.81 220.223,187.798 C219.931,187.798 219.833,187.7 219.833,187.603 L220.021,187.435 L220.037,187.437 Z M219.74,188.021 C220.032,188.761 219.75,189.988 218.941,191.254 C217.325,193.794 213.732,196.453 209.593,196.141 L209.36,196.131 L209.312,196.355 C208.698,199.442 206.547,201.701 204.824,202.392 C203.977,202.742 203.285,202.703 202.895,202.303 C202.505,201.906 202.339,201.028 202.739,199.52 L203.09,198.244 L202.279,199.282 C200.108,202.095 198.18,203.118 196.845,203.118 C196.173,203.108 195.637,202.865 195.239,202.446 C194.841,202.027 194.587,201.424 194.509,200.702 C194.217,197.81 196.972,193.06 205.376,191.754 L205.522,191.734 L205.58,191.598 C206.953,188.483 209.358,186.321 211.578,185.221 C212.688,184.675 213.748,184.393 214.585,184.384 C215.432,184.374 216.026,184.627 216.329,185.094 C216.641,185.59 216.718,186.321 216.592,187.091 C216.466,187.87 216.125,188.689 215.657,189.331 C215.189,189.973 214.606,190.471 213.992,190.626 C213.369,190.792 212.726,190.665 212.015,190.012 L211.713,189.73 L211.587,190.139 C210.341,194.219 208.287,196.028 206.69,196.526 C205.882,196.779 205.191,196.712 204.763,196.466 C203.926,195.824 204.159,195.192 204.685,194.559 C203.331,195.182 203.488,196.31 204.5,196.914 C205.094,197.256 205.932,197.323 206.847,197.031 C208.619,196.475 210.683,194.578 211.978,190.634 C212.689,191.159 213.439,191.315 214.12,191.14 C214.899,190.936 215.571,190.362 216.087,189.641 C216.603,188.92 216.973,188.044 217.119,187.178 L217.119,187.148 C217.859,187.05 218.452,187.07 218.862,187.216 C218.862,187.508 219.154,187.8 219.349,188.19 L219.764,188.012 L219.74,188.021 Z" id="svg_96" fill="#1E98D3" fill-rule="nonzero"></path>
                <path d="M252.754,193.575 C235.248,180.373 252.362,170.344 261.936,173.751 C221.519,148.309 232.385,91.925 261.274,150.822 C251.81,80.631 273.6,89.423 273.181,119.733 L274.681,115.498 C280.327,89.394 246.951,71.878 256.698,137.094 C236.611,96.326 213.77,140.853 253.563,170.85 C237.984,172.447 239.882,188.474 248.208,191.773 L252.696,194.227 L252.89,193.643 L252.743,193.584 L252.754,193.575 Z" id="svg_95" fill="#77B0E0" fill-rule="nonzero"></path>
                <path d="M339.507,215.093 C335.797,215.104 331.834,215.901 328.134,217.771 C322.683,220.518 319.089,223.516 316.031,228.803 C320.121,225.578 325.018,222.901 329.361,220.916 C334.491,218.579 339.74,217.858 343.947,219.026 C349.467,220.565 353.576,225.092 354.209,234.712 C356.468,269.384 351.706,289.032 334.766,308.818 C331.727,312.372 328.953,314.464 326.586,315.389 C324.22,316.324 322.313,316.197 320.433,315.263 C316.664,313.383 313.062,307.503 310.599,298.934 C308.223,290.697 307.766,282.819 309.723,275.956 C311.086,271.125 313.616,266.764 317.6,263.035 C323.627,257.398 330.666,253.717 331.436,242.627 C327.493,252.715 321.221,255.217 315.701,260.241 C311.068,264.446 308.049,269.511 306.481,275.03 C304.309,282.684 304.874,291.194 307.367,299.868 C309.957,308.847 313.579,315.594 318.924,318.271 C321.602,319.605 324.717,319.74 327.823,318.514 C330.92,317.286 334.054,314.814 337.326,310.998 C354.784,290.599 359.847,269.558 357.557,234.486 C356.867,223.914 351.697,217.681 344.853,215.783 C343.198,215.297 341.445,215.101 339.595,215.101 L339.506,215.092 L339.507,215.093 Z" id="svg_94" fill="#77B0E0" fill-rule="nonzero"></path>
                <path d="M297.242,218.305 C290.202,225.295 288.644,231.722 289.861,239.075 C290.376,242.221 291.381,244.778 292.88,246.824 C295.023,249.765 298.167,251.478 301.818,252.228 C309.13,253.728 318.663,251.831 329.831,249.297 L330.317,245.703 C319.218,248.225 308.643,250.193 302.5,248.936 C299.433,248.302 297.203,247.045 295.588,244.837 C294.535,243.396 293.727,241.478 293.26,238.974 C291.995,232.256 293.845,224.273 297.252,218.237 L297.252,218.306 L297.242,218.305 Z" id="svg_93" fill="#77B0E0" fill-rule="nonzero"></path>
                <path d="M319.344,224.929 C319.002,221.957 318.184,218.861 317.055,216.01 C319.207,218.152 320.736,220.489 321.807,223 L319.433,224.782 L319.238,224.976 L319.347,224.926 L319.344,224.929 Z" id="svg_92" fill="#77B0E0" fill-rule="nonzero"></path>
                <path d="M356.35,258.515 C358.462,258.077 360.643,257.599 362.882,257.082 L363.379,253.489 C360.983,254.035 358.617,254.55 356.31,255.018 C356.31,255.018 356.31,258.33 356.409,258.524 L356.349,258.503 L356.35,258.515 Z" id="svg_91" fill="#77B0E0" fill-rule="nonzero"></path>
                <path d="M233.271,253.84 C226.854,257.481 220.487,260.78 212.016,261.774 C206.282,262.436 201.588,262.349 196.486,259.047 C200.089,265.006 206.456,265.804 212.484,265.093 C221.567,264.022 228.462,260.439 234.937,256.759 L233.185,253.936 L233.254,253.836 L233.271,253.84 Z" id="svg_90" fill="#77B0E0" fill-rule="nonzero"></path>
                <path d="M228.312,349.523 C219.656,331.754 232.848,316.66 249.225,317.285 C276.472,318.327 283.868,356.84 259.487,368.535 C242.516,376.676 226.8,370.741 215.173,356.51 C204.658,343.641 189.474,359.475 182.062,337.765 C199.853,347.945 206.937,328.01 225.797,335.509" id="Shape" stroke="url(#linearGradient-2)" stroke-width="5" stroke-linejoin="round"></path>
            </g>
            <text id="¡Hello,-SVG!" transform="translate(90.085958, 60.803167) rotate(-16.000000) translate(-90.085958, -60.803167) " font-family="Roboto-Regular, Roboto" font-size="60" font-weight="normal" line-spacing="50">
                <tspan x="7.58595771" y="66.8031667" fill="#571687">¡</tspan>
                <tspan x="22.2050983" y="66.8031667" fill="#323232">Hello</tspan>
                <tspan x="160.105489" y="66.8031667" fill="#4E4945">,</tspan>
                <tspan x="216.091817" y="84.1723073" fill="#D58D66"></tspan>
                <tspan x="24.6953327" y="116.803167" fill="#25E300">S</tspan>
                <tspan x="60.2910358" y="116.803167" fill="#E39E00">V</tspan>
                <tspan x="98.464864" y="116.803167" fill="#CE00E3">G</tspan>
                <tspan x="139.334005" y="116.803167" fill="#440862">!</tspan>
            </text>
        </g>
    </g>
</svg>